<svg version="1.1" xmlns="http://www.w3.org/2000/svg" xmlns:xlink="http://www.w3.org/1999/xlink" width="600.10808" height="371.22965" viewBox="0,0,600.10808,371.22965"><g transform="translate(-19.94596,5.61482)"><g data-paper-data="{&quot;isPaintingLayer&quot;:true}" fill-rule="nonzero" stroke-linejoin="miter" stroke-miterlimit="10" stroke-dasharray="" stroke-dashoffset="0" style="mix-blend-mode: normal"><path d="M19.94596,365.61483v-371.22965h600.10808v371.22965z" fill="#c0bbff" stroke="none" stroke-width="0" stroke-linecap="butt"/><g><path d="M155.51585,104.29412c0,-12.17505 0,-53.06846 0,-74.5839c0,-8.57612 5.515,-13.49449 14.09112,-13.49449c22.21623,0 64.06477,0 75.77727,0c7.5866,0 12.30112,5.31114 12.30112,12.8978c0,11.94703 0,53.90371 0,75.77721c0,7.89759 -4.40352,13.49449 -12.30112,13.49449c-11.92564,0 -55.09444,0 -76.97059,0c-7.80365,0 -12.8978,-14.09112 -12.8978,-14.09112z" fill="#8880ff" stroke="#9f98ff" stroke-width="7.5" stroke-linecap="butt"/><path d="M188.86998,59.37835c0,0 12.20029,-27.33872 20.37134,-21.12589c14.74598,11.2121 -0.37724,62.24587 -0.37724,62.24587" fill="none" stroke="#d4d1ff" stroke-width="10" stroke-linecap="round"/></g><g stroke-linecap="butt"><path d="M268.91525,216.9936c0,-12.17511 0,-53.06846 0,-74.5839c0,-8.57612 5.51507,-13.49449 14.09112,-13.49449c22.21623,0 64.06471,0 75.77721,0c7.5866,0 12.30112,5.31114 12.30112,12.8978c0,11.94703 0,53.90377 0,75.77721c0,7.89753 -4.40359,13.49449 -12.30112,13.49449c-11.9257,0 -55.09444,0 -76.97059,0c-7.80365,0 -12.8978,-14.09112 -12.8978,-14.09112z" fill="#8880ff" stroke="#9f98ff" stroke-width="7.5"/><path d="M342.20532,180.00003c0,19.67294 -5.03744,35.621 -22.20532,35.621c-16.03615,0 -22.20532,-15.94807 -22.20532,-35.621c0,-19.67294 5.41468,-35.621 22.20532,-35.621c17.54513,0 22.20532,15.94807 22.20532,35.621z" fill="none" stroke="#d4d1ff" stroke-width="10"/></g><g><path d="M382.31464,329.69315c0,-12.17505 0,-53.06846 0,-74.5839c0,-8.57612 5.51507,-13.49449 14.09112,-13.49449c22.21623,0 64.06477,0 75.77727,0c7.5866,0 12.30112,5.31114 12.30112,12.8978c0,11.94703 0,53.90371 0,75.77721c0,7.89759 -4.40352,13.49449 -12.30112,13.49449c-11.92564,0 -55.0945,0 -76.97059,0c-7.80365,0 -12.8978,-14.09112 -12.8978,-14.09112z" fill="#8880ff" stroke="#9f98ff" stroke-width="7.5" stroke-linecap="butt"/><path d="M415.66871,284.77732c0,0 12.20029,-27.33872 20.37134,-21.12589c14.74598,11.2121 -0.37724,62.24587 -0.37724,62.24587" fill="none" stroke="#d4d1ff" stroke-width="10" stroke-linecap="round"/></g></g></g></svg>
