<?xml version="1.0" encoding="UTF-8" standalone="no"?>
<!-- Created with Inkscape (http://www.inkscape.org/) -->

<svg
   width="600mm"
   height="372mm"
   viewBox="0 0 600 372"
   version="1.1"
   id="svg1"
   xml:space="preserve"
   inkscape:version="1.3.1 (91b66b0783, 2023-11-16)"
   sodipodi:docname="Debuger.svg"
   xmlns:inkscape="http://www.inkscape.org/namespaces/inkscape"
   xmlns:sodipodi="http://sodipodi.sourceforge.net/DTD/sodipodi-0.dtd"
   xmlns="http://www.w3.org/2000/svg"
   xmlns:svg="http://www.w3.org/2000/svg"><sodipodi:namedview
     id="namedview1"
     pagecolor="#505050"
     bordercolor="#eeeeee"
     borderopacity="1"
     inkscape:showpageshadow="0"
     inkscape:pageopacity="0"
     inkscape:pagecheckerboard="0"
     inkscape:deskcolor="#505050"
     inkscape:document-units="mm"
     inkscape:zoom="0.31524441"
     inkscape:cx="1257.7543"
     inkscape:cy="680.42444"
     inkscape:window-width="1920"
     inkscape:window-height="1027"
     inkscape:window-x="1912"
     inkscape:window-y="-8"
     inkscape:window-maximized="1"
     inkscape:current-layer="svg1" /><defs
     id="defs1" /><rect
     style="opacity:1;fill:#505050;fill-opacity:1;stroke:none;stroke-width:14.009"
     id="rect1"
     width="600"
     height="372"
     x="0"
     y="0"
     ry="1.3186425"
     inkscape:label="背景" /><path
     fill="#ffffff"
     fill-opacity="0.541"
     d="m 196.55134,376.0946 c 8.44532,-27.67303 93.88626,-42.80432 95.43257,-66.94034 1.54751,-24.13727 -86.77546,29.39201 -93.09291,15.20956 -6.31744,-14.18238 91.21603,-85.82043 142.83538,-106.76227 31.10485,-12.61776 55.64369,5.21435 19.83019,32.81395 -23.95979,18.46506 -12.6839,34.33089 9.36229,23.47863 22.04736,-10.85476 33.77626,17.13785 3.31788,41.06088 -30.45596,23.92303 -187.23867,92.45869 -177.68419,61.13959 z m 231.80481,-71.25606 c 23.65241,-35.2895 68.86869,-13.2752 40.21002,23.73081 -25.36037,32.73808 -106.81248,66.66736 -110.79397,48.44596 -2.92243,-13.38168 42.75782,-30.65674 70.58395,-72.17677 z M 622.866,376.06037 c -38.50458,37.35368 -71.02715,73.75732 -93.93032,72.63099 -23.79694,-1.17044 -2.5417,-46.71358 37.86425,-81.64927 28.62678,-24.7531 0.67093,-37.31331 -26.78302,-22.53468 -33.17639,17.86026 -59.03746,5.90978 -16.21966,-33.25101 42.81783,-39.16203 107.83235,-67.97983 143.29695,-60.59111 35.46091,7.38871 -49.8123,29.95639 -53.19631,59.84918 -3.32399,29.37362 48.39211,-29.92463 75.35633,-10.19852 26.17329,19.14454 -30.62736,41.05478 -66.38946,75.74442 z M 191.35047,265.00687 c 4.34756,21.2687 -48.7214,88.28008 -113.802093,105.94688 -65.416112,17.75984 -126.921774,24.66493 -129.560176,9.30475 -2.62003,-15.26958 38.871847,-26.80381 90.415319,-51.51655 24.919615,-11.94679 -1.445946,-22.0155 -17.669263,-15.56096 -53.659079,21.34221 -49.467008,-11.27343 -4.162638,-34.26844 35.400899,-17.96921 65.343882,-27.39514 83.081672,-31.71942 25.728879,-6.27215 31.091409,10.34544 16.402129,19.72365 -28.670943,18.30344 -14.88395,35.19892 10.78127,20.99691 16.25635,-8.99744 57.47888,-57.30629 64.51378,-22.90682 z m 23.94387,-18.27652 c -15.21333,6.08968 -19.16049,-5.07232 -19.16049,-14.08937 0,-9.02074 15.21573,-12.40102 23.67082,-7.3287 8.45387,5.07228 6.0848,17.1795 -4.51033,21.41807 z m 428.14617,-38.46909 c -5.80324,13.4295 -70.85329,15.57569 -119.22456,58.95547 -17.40355,15.60751 -38.73718,-3.45745 -33.67221,-18.08798 5.06131,-14.63052 20.52926,-18.48705 44.74122,-27.89837 24.20825,-9.41493 -6.57579,-21.9629 -46.52135,-3.1134 -22.84931,10.78009 -47.33182,-7.3924 -19.74203,-26.10721 23.05991,-15.64176 76.19499,-20.12641 74.74419,-33.54364 -0.80438,-7.45113 -39.37628,10.47398 -46.38546,-5.59021 -5.82648,-13.34984 7.98129,-28.69171 46.56419,-31.80755 39.30892,-3.1722 69.87996,4.91194 70.33663,24.22297 0.51909,21.86128 -45.59944,27.78573 -24.87801,34.54392 20.83775,6.79249 64.26404,4.7503 54.03739,28.4248 z m -233.47104,46.78215 c -7.76825,-5.40164 -8.00949,-12.29087 0.24711,-21.8478 10.70537,-12.39373 28.5705,-11.81707 33.81788,-7.28464 5.24618,4.53235 -6.61495,16.26981 -11.14364,23.03171 -4.52997,6.76063 -12.91896,13.05479 -22.92154,6.10073 z m 0.47745,-74.45274 c -46.05854,11.01142 -71.97473,-7.44873 -61.65869,-20.06033 11.14368,-13.61926 37.81649,-13.58862 39.91253,-40.25286 3.91655,-49.893113 52.99422,-58.721612 32.05243,-23.890007 -7.33364,12.203937 3.43662,19.936697 9.75041,4.334067 3.81248,-9.416159 21.89312,-22.338767 31.44763,-27.117256 43.36506,-21.681328 77.93958,9.818975 46.92412,18.573986 -20.18153,5.696747 -38.31356,19.39555 -49.89553,50.76849 -6.17053,16.71799 -28.30238,32.80666 -48.53166,37.64391 z M 547.68232,79.485878 C 530.22365,57.166721 584.1594,55.917902 604.07773,49.213571 623.99724,42.508038 582.94981,39.104462 546.83876,39.480292 510.7253,39.855105 516.19063,12.120649 557.2356,-1.4655157 c 63.06178,-20.8708073 119.27721,0.80316162 70.95493,14.6513257 -18.02189,5.167785 -5.21191,20.073798 14.79211,17.923902 37.77607,-4.061024 65.77362,14.583953 59.41574,29.150832 -7.17442,16.437562 -24.92693,5.371018 -42.87901,4.143066 -17.95204,-1.23045 -2.41189,16.36658 20.83412,28.482322 39.92964,20.810848 6.52556,56.208098 -27.76245,24.208308 C 603.73982,71.500937 560.75551,96.197694 547.68352,79.485878 Z M 366.55785,25.375036 c 25.77786,-52.63922 78.70359,-47.467732 71.27323,-29.4997787 -7.42911,17.9680007 23.13334,3.33014012 37.29004,6.6064182 14.15547,3.2725746 22.54932,27.8811885 -30.01395,32.6168285 -64.75991,5.839949 -66.27439,69.719556 -87.90061,56.380724 -14.87169,-9.168884 -0.20452,-46.59238 9.35129,-66.105398 z M -20.058527,263.59276 c -43.174092,7.42055 -52.735929,-7.44624 -34.760616,-19.34409 11.146136,-7.3826 54.55279621,-30.91998 22.850511,-33.22536 -31.705943,-2.30659 -8.076747,-32.45033 29.1569402,-60.51274 C 34.420836,122.44693 115.76524,107.28629 112.2123,130.95343 c -3.55787,23.66592 -99.346697,35.02139 -82.097366,59.99733 7.49153,10.84861 44.131484,-34.1448 60.397654,-8.25675 C 106.78,208.58329 7.0072827,258.94406 -20.057324,263.59276 Z M 260.94883,219.24458 c -13.78083,11.66643 -41.96444,-5.1813 -16.6139,-28.30118 5.86812,-5.35144 20.95039,-10.47643 11.93948,-15.75808 -27.22253,-15.95641 -110.19283,66.92693 -123.91855,39.73498 -6.59905,-13.07563 26.49161,-42.31707 62.61122,-60.58376 26.66427,-13.48455 16.94198,-38.18866 -22.63382,-13.84817 -39.57705,24.34171 -46.56055,-4.34999 -24.63679,-23.1811 21.92251,-18.828673 161.98604,-84.042802 171.5283,-49.192785 7.42792,27.106207 -70.82637,22.141658 -61.08819,39.654185 7.14874,12.85039 61.57183,-21.271167 80.83633,0.88885 18.64502,21.44132 -51.14552,35.64699 -46.67684,48.50349 3.52847,10.14464 36.92399,-4.15039 37.57041,20.68594 0.50078,19.24741 -35.56374,13.16993 -68.91643,41.39763 z M 67.330295,45.972831 c -8.377985,44.07151 -86.005346,85.158149 -115.789148,96.206319 -46.862947,17.37418 -95.831687,11.58199 -68.187967,-2.63476 27.642465,-14.21912 100.305276,-61.301177 62.905054,-64.533357 -18.406253,-1.59161 -39.210984,-15.246352 0,-47.633019 C -28.850285,6.8169603 57.900662,-21.594428 62.638708,-3.4280997 67.376801,14.739431 -36.874419,46.335243 -4.4938608,49.496392 27.886698,52.655134 71.245649,25.364021 67.330295,45.972831 Z M 181.64413,61.790936 C 156.34988,74.435581 132.957,89.748061 106.03075,95.527997 70.912629,103.06487 105.54961,55.549382 139.26097,40.134085 154.35915,33.231428 136.27978,24.030753 121.7509,31.083985 82.27055,50.249349 65.099606,35.52579 105.87036,8.4109762 c 10.13605,-6.742274 41.45389,-22.7035942 79.48223,-27.5787932 38.38825,-4.925407 37.39041,9.2068293 25.51093,14.5056123 -17.08279,7.6176698 -28.78476,24.1323697 17.01668,10.1838407 81.87454,-24.933081 130.3756,-20.781455 111.73668,0 -17.40965,19.40654 -76.09821,15.346719 -157.97275,56.2693 z"
     data-paper-data="{&quot;index&quot;:null}"
     opacity="0.1"
     style="opacity:0.2;mix-blend-mode:normal;fill:#ffffff;fill-opacity:1;fill-rule:evenodd;stroke:none;stroke-width:1.22432;stroke-linecap:butt;stroke-linejoin:miter;stroke-miterlimit:10;stroke-dasharray:none;stroke-dashoffset:0"
     id="path5"
     inkscape:label="背景圖案" /><path
     style="color:#000000;-inkscape-font-specification:'KaiTi, Normal';display:none;opacity:0.2;fill:#000000;fill-opacity:1;stroke:#000000;stroke-width:10;stroke-dasharray:none;stroke-opacity:1"
     d="m 212.49803,94.427 -16.33003,16.32808 82.87671,75.51152 -82.54664,73.37481 14.67184,17.93159 99.33369,-89.49977 z m 67.9041,161.73786 -21.08198,21.08197 h 144.5113 v -21.08197 z"
     id="path2"
     sodipodi:nodetypes="cccccccccccc"
     inkscape:label="圖案 - 陰影" /><path
     style="color:#000000;-inkscape-font-specification:'KaiTi, Normal';display:none;fill:#ffffff;stroke-width:0.999997;-inkscape-stroke:none"
     d="m 212.49803,94.427 -16.33003,16.32808 82.87671,75.51152 -82.54664,73.37481 14.67184,17.93159 99.33369,-89.49977 z m 67.9041,161.73786 -21.08198,21.08197 h 144.5113 c -8.49908,-8.12251 -8.49908,-8.12251 0,0 v -4.99999 -16.08198 z"
     id="path2-0"
     sodipodi:nodetypes="cccccccccccccc"
     inkscape:label="圖案" /><path
     style="fill:#000000;fill-opacity:1;stroke-width:20;stroke:#000000;stroke-opacity:1;stroke-dasharray:none;opacity:0.2"
     d="m 214.62692,286.24837 c -3.46782,-0.69743 -5.62357,-2.76553 -6.95161,-6.67118 -1.21084,-3.55984 -1.3416,-5.0637 -1.3416,-15.50733 0,-8.47484 0.0484,-10.13949 0.48917,-12.39938 1.5886,-8.45498 4.95423,-12.79072 14.2563,-18.35762 1.65157,-0.98805 7.70282,-4.35414 13.44554,-7.48341 39.27202,-21.38227 51.47766,-28.07429 53.76081,-29.47352 5.2424,-3.21112 8.05152,-6.81938 8.05152,-10.33661 0,-3.51625 -2.80912,-7.12403 -8.05152,-10.33661 -2.2812,-1.39971 -14.48879,-8.09124 -53.76081,-29.474 -5.74272,-3.12878 -11.79347,-6.49392 -13.44554,-7.48292 -9.30207,-5.5669 -12.66914,-9.90265 -14.2563,-18.35761 -0.4359,-2.26184 -0.48917,-3.9231 -0.48917,-12.39939 0,-10.444127 0.1453,-11.945558 1.3416,-15.50781 1.61767,-4.756139 4.35414,-6.777254 9.12432,-6.745288 4.1943,0.02809 6.03574,0.818521 21.49706,9.243955 7.40155,4.034483 15.45453,8.418653 17.89557,9.745723 2.44104,1.32706 19.47304,10.60784 37.85053,20.62381 18.37699,10.01549 37.52407,20.44654 42.54901,23.1806 44.74305,24.34153 48.54165,26.44886 51.16334,28.38328 7.88153,5.81634 7.88153,12.4357 0,18.25204 -2.62023,1.93733 -6.42029,4.04417 -51.16334,28.38377 -5.02494,2.73164 -24.17202,13.16511 -42.54901,23.18061 -18.37749,10.01549 -35.40999,19.29624 -37.85053,20.62331 -2.44104,1.32708 -10.49402,5.71271 -17.89557,9.74573 -10.72359,5.84298 -14.01172,7.51489 -16.18442,8.22977 -2.92053,0.95897 -5.66814,1.30768 -7.48535,0.93959 z"
     id="path1"
     inkscape:label="&gt; 阴影" /><path
     style="fill:#ffffff;fill-opacity:1;stroke-width:48.4332"
     d="m 214.62693,286.24826 c -3.46782,-0.69743 -5.62357,-2.76553 -6.95161,-6.67118 -1.21084,-3.55984 -1.3416,-5.0637 -1.3416,-15.50733 0,-8.47484 0.0484,-10.13949 0.48917,-12.39938 1.5886,-8.45498 4.95423,-12.79072 14.2563,-18.35762 1.65157,-0.98805 7.70282,-4.35414 13.44554,-7.48341 39.27202,-21.38227 51.47766,-28.07429 53.76081,-29.47352 5.2424,-3.21112 8.05152,-6.81938 8.05152,-10.33661 0,-3.51625 -2.80912,-7.12403 -8.05152,-10.33661 -2.2812,-1.39971 -14.48879,-8.09124 -53.76081,-29.474 -5.74272,-3.12878 -11.79347,-6.49392 -13.44554,-7.48292 -9.30207,-5.5669 -12.66914,-9.90265 -14.2563,-18.35761 -0.4359,-2.26184 -0.48917,-3.9231 -0.48917,-12.39939 0,-10.444127 0.1453,-11.945557 1.3416,-15.507807 1.61767,-4.75614 4.35414,-6.77725 9.12432,-6.74529 4.1943,0.0281 6.03574,0.81852 21.49706,9.24396 7.40155,4.03448 15.45453,8.418647 17.89557,9.745717 2.44104,1.32706 19.47304,10.60784 37.85053,20.62381 18.37699,10.01549 37.52407,20.44654 42.54901,23.1806 44.74305,24.34153 48.54165,26.44886 51.16334,28.38328 7.88153,5.81634 7.88153,12.4357 0,18.25204 -2.62023,1.93733 -6.42029,4.04417 -51.16334,28.38377 -5.02494,2.73164 -24.17202,13.16511 -42.54901,23.18061 -18.37749,10.01549 -35.40999,19.29624 -37.85053,20.62331 -2.44104,1.32708 -10.49402,5.71271 -17.89557,9.74573 -10.72359,5.84298 -14.01172,7.51489 -16.18442,8.22977 -2.92053,0.95897 -5.66814,1.30768 -7.48535,0.93959 z"
     id="path1-7"
     inkscape:label="&gt;" /></svg>
