<?xml version="1.0" encoding="UTF-8" standalone="no"?>
<!-- Created with Inkscape (http://www.inkscape.org/) -->

<svg
   width="600mm"
   height="300mm"
   viewBox="0 0 600 300"
   version="1.1"
   id="svg1"
   xml:space="preserve"
   inkscape:version="1.3.1 (91b66b0783, 2023-11-16)"
   sodipodi:docname="運動.svg"
   xmlns:inkscape="http://www.inkscape.org/namespaces/inkscape"
   xmlns:sodipodi="http://sodipodi.sourceforge.net/DTD/sodipodi-0.dtd"
   xmlns="http://www.w3.org/2000/svg"
   xmlns:svg="http://www.w3.org/2000/svg"><sodipodi:namedview
     id="namedview1"
     pagecolor="#505050"
     bordercolor="#eeeeee"
     borderopacity="1"
     inkscape:showpageshadow="0"
     inkscape:pageopacity="0"
     inkscape:pagecheckerboard="0"
     inkscape:deskcolor="#505050"
     inkscape:document-units="mm"
     inkscape:zoom="0.37014941"
     inkscape:cx="725.38276"
     inkscape:cy="302.58052"
     inkscape:window-width="1920"
     inkscape:window-height="1050"
     inkscape:window-x="0"
     inkscape:window-y="0"
     inkscape:window-maximized="1"
     inkscape:current-layer="svg1" /><defs
     id="defs1" /><rect
     style="opacity:1;fill:#6880f1;fill-opacity:1;stroke:none;stroke-width:4"
     id="rect74894"
     width="600"
     height="300"
     x="3.5527137e-15"
     y="0"
     ry="0.75" /><path
     style="display:inline;fill:#ffffff;stroke-width:0.999954;fill-opacity:1;opacity:0.15"
     d="m 16.999971,299.21249 c 0,-3.63726 6.45496,-8.99858 17.000001,-14.11977 4.66723,-2.26663 7.991258,-3.84098 8.109748,-3.84098 0.0609,0 1.04546,-0.43686 2.18797,-0.9708 3.39082,-1.58467 4.66479,-2.14783 8.719681,-3.85452 2.12168,-0.89302 4.49727,-1.91622 5.27908,-2.27381 0.78182,-0.35758 1.47828,-0.65015 1.5477,-0.65015 0.0694,0 1.09579,-0.44996 2.28082,-0.9999 1.18503,-0.54995 2.19634,-0.99991 2.24736,-0.99991 0.051,0 0.85998,-0.34658 1.7977,-0.77017 0.93772,-0.4236 2.09869,-0.9374 2.57994,-1.1418 0.96847,-0.41134 1.254921,-0.53605 3.250001,-1.41512 0.75625,-0.33321 1.9375,-0.85197 2.625,-1.1528 0.6875,-0.30082 1.475,-0.64716 1.75,-0.76962 0.275,-0.12247 1.0625,-0.46675 1.75,-0.76505 4.60715,-1.99903 13.559521,-6.42119 15.054981,-7.43664 2.95477,-2.00636 4.60745,-4.62413 4.01692,-6.36261 -1.16198,-3.42075 -6.45707,-5.59741 -13.446901,-5.52764 -3.79271,0.0379 -5.97109,0.46901 -10.0492,1.98898 -9.277811,3.45797 -15.357101,4.89785 -20.825801,4.9326 -3.588741,0.0228 -4.849681,-0.22527 -6.625001,-1.30341 -1.91761,-1.16455 -2.79064,-3.42106 -2.28931,-5.91715 0.24187,-1.20423 1.32296,-3.7756 2.0945,-4.98173 0.94938,-1.48415 3.3107,-4.26599 5.306381,-6.25139 2.25376,-2.24215 2.5015,-2.46211 4.63926,-4.11904 0.61829,-0.47924 1.26089,-0.98544 1.42799,-1.1249 0.16711,-0.13946 0.44836,-0.37072 0.625,-0.5139 1.10137,-0.8927 7.31726,-4.82744 9.94618,-6.29608 5.252861,-2.93449 14.149551,-7.22253 23.625002,-11.3868 4.41479,-1.94021 5.40595,-2.35595 8.750007,-3.67013 1.1,-0.43229 2.225,-0.8846 2.5,-1.00515 0.275,-0.12055 1.45625,-0.5761 2.625,-1.01232 1.16875,-0.43622 2.35,-0.88311 2.625,-0.99309 0.275,-0.10998 1.23125,-0.44691 2.125,-0.74875 0.89375,-0.30183 1.85,-0.64301 2.125,-0.75817 0.275,-0.11515 2.075,-0.73124 4,-1.36906 1.925,-0.63782 3.725,-1.2595 4,-1.38151 0.69719,-0.30931 7.59549,-2.3985 10.25,-3.10427 1.97986,-0.5264 6.82506,-1.76856 8.875,-2.27528 2.65364,-0.65595 10.31922,-0.68923 12.05953,-0.0524 2.23825,0.81911 3.92669,2.04173 4.88972,3.54071 0.57823,0.90002 0.65979,1.28739 0.66725,3.16914 0.007,1.89105 -0.0791,2.3171 -0.7349,3.61375 -0.96185,1.90188 -2.8836,3.81561 -6.14046,6.11481 -8.31489,5.86994 -11.99114,10.39795 -11.99114,14.76938 0,3.82173 2.84024,5.86536 8.125,5.84617 2.65868,-0.01 4.31333,-0.34841 7.77769,-1.59233 4.3815,-1.57323 6.96338,-3.12523 12.06493,-7.25241 1.28845,-1.04235 2.70298,-2.1764 3.1434,-2.52012 0.44042,-0.34372 1.41124,-1.15498 2.15738,-1.80278 2.53428,-2.20033 10.06671,-8.26638 12.8566,-10.35374 5.13952,-3.84535 10.39338,-6.8655 13.71626,-7.88477 1.30036,-0.39888 2.46123,-0.55185 4.28374,-0.56448 2.49245,-0.0173 2.50431,-0.0144 3.92535,0.93634 2.12913,1.42453 3.36974,3.52223 4.46258,7.54555 1.15939,4.26835 0.0659,9.02271 -3.88319,16.88411 -2.25094,4.48088 -7.19131,12.07191 -10.16111,15.61287 -0.23062,0.27498 -1.33624,1.61734 -2.45692,2.98305 -5.60366,6.82879 -13.17982,14.39748 -21.13671,21.11587 -1.5125,1.27708 -3.02027,2.55023 -3.3506,2.82922 -3.60837,3.0476 -14.63343,10.56778 -19.2119,13.10442 -0.58438,0.32377 -1.59688,0.88762 -2.25,1.253 -2.08104,1.1642 -9.1367,4.71806 -10.5625,5.3202 -0.75625,0.31938 -1.99375,0.85351 -2.75,1.18697 -1.65164,0.72825 -2.04066,0.88943 -3.5,1.45009 -0.61875,0.23772 -1.40625,0.54341 -1.75,0.67932 -1.96993,0.77891 -8.51581,2.7997 -11.75,3.62739 -1.30625,0.33429 -2.99375,0.77399 -3.75,0.97711 -0.75625,0.20312 -1.99375,0.52393 -2.75,0.7129 -0.75625,0.18897 -2.10625,0.53341 -3,0.76541 -0.89375,0.232 -2.01875,0.51533 -2.5,0.62962 -0.48125,0.11429 -1.55,0.37478 -2.375,0.57886 -2.12092,0.52466 -4.594557,1.10348 -6.561517,1.53537 C 95.611253,299.94816 89.895252,300 56.187561,300 h -39.18759 z m 198.251099,0.22506 c 6e-4,-0.30935 0.25716,-1.29363 0.57014,-2.18729 2.41936,-6.90815 12.2816,-14.2308 30.30377,-22.50034 0.55,-0.25238 2.3359,-1.08625 3.96867,-1.85307 1.63277,-0.76681 3.0068,-1.3942 3.05341,-1.3942 0.0466,0 1.3817,-0.61869 2.96686,-1.37487 1.58517,-0.75618 2.9314,-1.37488 2.99165,-1.37488 0.23201,0 6.64742,-3.02834 11.89441,-5.61467 2.32578,-1.14642 5.32381,-2.7821 7.16794,-3.91072 0.87498,-0.5355 1.63802,-0.97363 1.69566,-0.97363 0.22953,0 3.60894,-2.39407 5.17603,-3.66685 4.57637,-3.71687 6.55586,-6.87172 6.56635,-10.46523 0.006,-1.98787 -0.48027,-2.9519 -1.92295,-3.81377 -1.60851,-0.96093 -3.52456,-1.14762 -7.07725,-0.68954 -1.77083,0.22833 -4.06594,0.647 -5.10024,0.93037 -1.03429,0.28339 -2.21804,0.60598 -2.63054,0.71689 -1.88402,0.50654 -2.78728,0.77955 -3.25,0.98232 -0.275,0.12051 -1.23125,0.44608 -2.125,0.72349 -1.30694,0.40566 -5.21509,1.75691 -8.375,2.89566 -0.56966,0.20529 -2.20268,0.82575 -3.11456,1.18338 -0.33802,0.13257 -1.29427,0.47161 -2.125,0.75343 -0.83074,0.28183 -1.61732,0.61103 -1.74794,0.73157 -0.13063,0.12054 -0.39487,0.21916 -0.58722,0.21916 -0.19234,0 -0.70422,0.15868 -1.1375,0.35261 -0.43328,0.19394 -2.53153,0.99507 -4.66278,1.78027 -2.13125,0.78522 -4.2125,1.5669 -4.625,1.73707 -0.4125,0.17017 -1.0875,0.44992 -1.5,0.62167 -0.4125,0.17176 -1.93125,0.69575 -3.375,1.16444 -1.44375,0.46868 -2.85,0.95047 -3.125,1.07064 -0.52873,0.23103 -3.32439,1.06834 -5.625,1.68472 -2.77183,0.74263 -4.92855,1.11903 -7.20397,1.25726 -3.67124,0.22303 -5.06075,-0.66154 -5.10992,-3.25304 -0.0362,-1.90673 1.26044,-4.23947 4.67759,-8.41545 2.49736,-3.05195 9.38813,-9.84318 13.6363,-13.43933 0.34375,-0.29099 0.90625,-0.77611 1.25,-1.07805 6.04778,-5.31221 21.72423,-17.43067 28.875,-22.32141 0.9625,-0.6583 2.875,-1.9784 4.25,-2.93357 7.1401,-4.95995 11.73278,-7.98094 19.25,-12.66231 2.2,-1.37005 4.9,-3.05132 6,-3.73613 4.62211,-2.87754 12.50825,-7.39741 18.25001,-10.45984 3.88026,-2.06959 13.16292,-6.61256 13.51142,-6.61256 0.055,0 0.69361,-0.27483 1.41925,-0.61074 5.77327,-2.67252 10.35562,-3.95185 15.76992,-4.40273 4.99043,-0.41558 8.71878,0.12252 11.79941,1.70295 2.91368,1.49478 4.32985,3.23947 5.02594,6.19182 0.41435,1.75742 0.41435,1.93779 0,3.67059 -1.27407,5.32807 -5.4095,10.57782 -13.77594,17.488 -5.58612,4.61379 -8.59754,8.13843 -10.07202,11.78855 -1.80236,4.46176 -0.33931,8.1228 3.82202,9.56401 1.8221,0.63105 5.46308,0.58392 7.91835,-0.10249 2.09025,-0.58437 3.46041,-1.09826 5.95665,-2.23412 3.02984,-1.37865 4.68678,-1.78958 7.25,-1.79806 3.59923,-0.0119 6.00485,1.20925 7.88471,4.00245 3.49566,5.19405 2.01671,13.58902 -3.76275,21.35858 -5.06162,6.80455 -12.28361,12.19789 -27.37196,20.44124 -7.15941,3.91146 -22.84837,11.68754 -29.875,14.80724 -0.4125,0.18314 -1.85601,0.84824 -3.2078,1.478 -1.35179,0.62975 -2.49707,1.145 -2.54506,1.145 -0.048,0 -0.85448,0.34461 -1.7922,0.76579 -0.93772,0.42119 -1.92995,0.86474 -2.20495,0.98566 -0.275,0.12093 -1.14956,0.50721 -1.94348,0.8584 -0.79391,0.3512 -2.11309,0.92036 -2.93152,1.26479 -2.30236,0.96896 -4.33115,1.8693 -4.80911,2.1342 -0.23876,0.13231 -0.54506,0.24058 -0.68066,0.24058 -0.13561,0 -0.84026,0.27386 -1.5659,0.60858 -0.72563,0.33471 -2.33183,1.01356 -3.56933,1.50857 -1.2375,0.495 -2.475,0.99456 -2.75,1.11014 -1.44685,0.60808 -2.47905,1.00831 -7.875,3.05354 -3.23125,1.22474 -6.04375,2.2968 -6.25,2.38236 -1.98026,0.82147 -17.82108,6.16814 -19.9497,6.7335 -1.06922,0.284 -4.23933,0.35185 -16.4375,0.35185 h -15.1128 z m 129.24273,-0.0788 c -0.49093,-1.29115 -0.28622,-2.95546 0.56869,-4.6235 0.76826,-1.49896 3.81999,-4.88539 6.19285,-6.87203 2.73097,-2.28647 3.77875,-3.13433 5.24465,-4.24395 0.89375,-0.67652 1.7375,-1.31742 1.875,-1.4242 0.1375,-0.10678 2.1625,-1.66348 4.5,-3.45933 11.08524,-8.51658 15.10719,-11.97379 22.51784,-19.35606 6.0966,-6.07324 11.25695,-12.1941 14.85716,-17.62258 2.31782,-3.49484 4.95255,-6.40752 8.26055,-9.13198 1.00675,-0.82915 4.26449,-2.78365 5.73945,-3.44342 4.1689,-1.86478 8.51771,-2.5087 12.39244,-1.83491 12.12576,2.10858 16.53225,13.21527 10.21492,25.74701 -0.97708,1.93824 -3.85102,6.50786 -4.34577,6.90988 -0.0846,0.0688 -0.3985,0.4437 -0.69755,0.83322 -0.29905,0.38953 -1.58892,1.84021 -2.86638,3.22372 -3.13703,3.39746 -6.76859,6.61733 -11.32266,10.03908 -1.375,1.03312 -2.6125,1.96973 -2.75,2.08136 -0.1375,0.11164 -1.6,1.09961 -3.25,2.19549 -1.65,1.09588 -3.05625,2.05049 -3.125,2.12135 -0.17445,0.17984 -1.05047,0.7227 -1.5,0.92954 -0.20625,0.0949 -1.89375,1.09008 -3.75,2.21152 -3.99346,2.41263 -8.50759,4.84829 -13.5,7.28412 -3.84744,1.87719 -4.21834,2.04792 -7.5,3.4524 -1.15314,0.49353 -2.44051,1.05856 -2.86081,1.25566 -0.84288,0.39524 -3.4429,1.36419 -5.76419,2.14814 -0.825,0.27862 -1.725,0.60435 -2,0.72385 -0.275,0.11949 -1.38467,0.50516 -2.46594,0.85705 L 367.19311,300 h -11.22775 -11.22775 z m 158.84186,-1.17112 c 1.80368,-1.7629 3.89747,-3.70208 9.03934,-8.37183 2.80864,-2.55077 2.90706,-2.65826 4.99509,-5.45598 3.22903,-4.32652 4.17758,-8.20247 2.74724,-11.22568 -1.6573,-3.50292 -5.9308,-5.38118 -12.24345,-5.38118 -3.26684,0 -4.33838,0.13148 -7.62388,0.93553 -3.85583,0.94361 -5.73562,1.66023 -10.62501,4.05045 -4.16373,2.03547 -5.15378,2.47475 -7.625,3.38313 -1.03125,0.37907 -2.1,0.78037 -2.375,0.89177 -2.47659,1.00322 -9.09385,2.24923 -11.875,2.23601 -2.60742,-0.0124 -5.63872,-1.11866 -7.03656,-2.56797 -2.36462,-2.45171 -2.31457,-6.2287 0.14813,-11.17871 1.4619,-2.93842 2.53885,-4.55553 5.38274,-8.08258 6.42829,-7.97248 19.16133,-19.25628 30.50569,-27.03362 1.16875,-0.80126 2.8,-1.93189 3.62501,-2.51253 1.73024,-1.21772 9.80721,-6.36719 9.98698,-6.36719 0.0662,0 1.14454,-0.62093 2.39622,-1.37984 2.29106,-1.38911 3.58702,-2.11215 7.4918,-4.17981 3.01716,-1.59765 8.89906,-4.54311 10.375,-5.19544 0.6875,-0.30386 2.08311,-0.94004 3.10137,-1.41371 6.05107,-2.8149 14.26348,-5.87771 20.64863,-7.70088 0.825,-0.23556 1.8375,-0.5259 2.25,-0.64519 5.59827,-1.61895 10.02621,-2.53909 15,-3.11705 1.7875,-0.2077 3.45253,-0.44061 3.70006,-0.51756 0.24753,-0.077 2.94753,-0.1398 6,-0.13965 4.06903,2e-4 6.11696,0.10816 7.67494,0.40461 4.30051,0.81831 6.59524,1.58117 7.7632,2.5808 1.26429,1.08209 1.3493,2.23006 0.27495,3.71303 -1.83876,2.53809 -4.84694,4.56644 -21.53815,14.52269 -5.3865,3.21303 -12.99112,8.46321 -16.02511,11.06365 -1.71484,1.46977 -5.51774,5.21133 -6.3782,6.27529 -3.37946,4.17874 -4.79941,8.08486 -4.54382,12.49957 0.23585,4.07389 2.2693,5.07561 6.98839,3.44261 1.51022,-0.52259 9.27604,-4.33206 11.70874,-5.74364 3.47483,-2.01627 9.39286,-5.04972 14.25,-7.30423 1.80004,-0.83552 6.68623,-2.59366 8.375,-3.01348 0.9625,-0.23927 2.14375,-0.54496 2.625,-0.6793 0.48125,-0.13434 2.36563,-0.31273 4.1875,-0.39641 L 600,234.4312 v 14.62671 14.62671 l -1.77588,1.34676 c -0.97673,0.74071 -2.24196,1.68421 -2.81162,2.09667 -0.56966,0.41247 -3.11739,2.25899 -5.66162,4.1034 -2.54424,1.84441 -5.13213,3.69542 -5.75088,4.11334 -4.64919,3.14024 -16.98936,12.48478 -20.375,15.42889 -3.23696,2.81482 -5.8324,5.17731 -7.7331,7.03902 L 553.6588,300 h -26.0887 -26.0887 z m -41.46067,-83.18076 c -2.28194,-0.67592 -2.82321,-0.92607 -4.69248,-2.16864 -2.30319,-1.53102 -3.89108,-3.16149 -5.23577,-5.37616 -1.59781,-2.63157 -2.07175,-4.30981 -2.07175,-7.33618 0,-2.65731 0.10122,-3.02928 1.72127,-6.32571 2.17002,-4.41549 7.61185,-8.59415 15.65373,-12.02017 0.75625,-0.32218 1.7125,-0.7315 2.125,-0.9096 0.4125,-0.17809 2.1,-0.84279 3.75,-1.4771 1.65,-0.63431 3.225,-1.24863 3.5,-1.36513 0.275,-0.1165 1.5125,-0.57584 2.75,-1.02075 1.2375,-0.4449 2.5875,-0.94796 3,-1.1179 0.4125,-0.16994 1.82723,-0.71934 3.14385,-1.22089 3.84424,-1.46442 6.13357,-3.00846 7.01791,-4.73328 1.11532,-2.17534 -0.87354,-4.13611 -5.41176,-5.33532 -1.46,-0.38579 -2.70286,-0.46242 -7.5,-0.46242 -5.76499,0 -6.5157,0.073 -11.875,1.15397 -3.04913,0.61503 -6.49477,1.49328 -7.625,1.94351 -0.275,0.10954 -1.11875,0.39088 -1.875,0.6252 -0.75625,0.23431 -1.76875,0.58027 -2.25,0.76879 -4.04628,1.58506 -5.09846,2.02256 -6.67208,2.77429 -0.9884,0.47217 -1.8714,0.85848 -1.96222,0.85848 -0.0908,0 -0.51964,0.16479 -0.95292,0.36619 -1.70807,0.79396 -6.11607,1.5995 -8.86489,1.62 -4.08515,0.0305 -7.71025,-0.9761 -10.25107,-2.84637 -2.73812,-2.0155 -3.79682,-3.97027 -3.79682,-7.01041 0,-3.54971 1.50442,-6.27327 5.57216,-10.08767 2.24471,-2.10492 5.73455,-4.43089 9.05284,-6.0337 3.86198,-1.86542 6.3373,-3.00553 6.52538,-3.00553 0.082,0 0.50356,-0.15997 0.93684,-0.35549 0.43328,-0.19552 1.96903,-0.74749 3.41278,-1.22659 1.44375,-0.47912 2.90625,-0.98437 3.25,-1.1228 0.819,-0.32981 7.96258,-2.52058 11.125,-3.41179 0.825,-0.2325 1.78125,-0.51721 2.125,-0.6327 0.34375,-0.11549 1.3,-0.40219 2.125,-0.6371 5.20767,-1.48289 12.37216,-3.83265 15.33697,-5.03012 6.29361,-2.54194 8.84399,-4.44381 9.67891,-7.21778 0.29923,-0.99418 0.2986,-1.25555 -0.004,-1.84154 -0.39345,-0.76077 -1.70757,-1.27198 -3.26982,-1.27198 -1.12829,0 -6.36931,0.68226 -7.6166,0.9915 -0.79641,0.19745 -2.15561,0.40392 -8.46905,1.28648 -3.00203,0.41965 -8.33247,0.41687 -10.28095,-0.005 -2.30339,-0.49913 -4.03759,-1.31661 -5.34041,-2.51739 -1.36336,-1.2566 -1.94672,-2.32522 -2.5275,-4.62995 -0.88395,-3.50785 -0.16425,-6.61975 2.28858,-9.89554 4.26264,-5.69282 12.81695,-9.714455 25.70433,-12.084341 1.9414,-0.357008 4.04086,-0.613723 9.75,-1.192196 3.51799,-0.356458 20.71818,-0.355402 24.00001,0.0015 11.35773,1.23507 18.92415,3.451439 24.50634,7.178437 4.90158,3.2726 7.34603,7.46689 7.35361,12.61765 0.007,4.42438 -2.70122,8.68619 -8.08872,12.73119 -2.25774,1.69514 -3.50954,2.48326 -8.77123,5.52228 -3.64878,2.10745 -6.25568,3.90014 -6.73484,4.63136 -1.64216,2.50602 1.95653,4.36093 12.10984,6.24188 1.16875,0.21652 2.35,0.44957 2.625,0.51789 0.61973,0.15394 4.406,0.78629 6.75,1.12732 3.45495,0.50266 9.54699,1.7327 13,2.62482 6.76546,1.7479 11.31242,4.48371 12.86385,7.73987 0.85474,1.79395 0.97579,4.47928 0.30046,6.66554 -0.72269,2.33959 -1.12405,3.02597 -2.34793,4.01533 -1.805,1.45912 -2.63684,1.90484 -7.56638,4.05423 -0.73606,0.32094 -9.29304,3.18815 -11.75,3.9371 -3.31864,1.01162 -8.80433,2.74574 -9.25,2.92408 -0.275,0.11005 -1.68125,0.55915 -3.125,0.998 -1.44375,0.43885 -2.85,0.89453 -3.125,1.01262 -0.275,0.1181 -1.23125,0.45304 -2.125,0.74431 -2.4299,0.79191 -6.21528,2.17284 -7.625,2.78166 -0.275,0.11877 -1.97666,0.77537 -3.78147,1.45913 -1.80481,0.68376 -3.88606,1.51355 -4.625,1.84398 -0.73894,0.33043 -1.96228,0.86804 -2.71853,1.19469 -3.98212,1.72 -13.21686,6.53004 -17.50001,9.11511 -4.84197,2.92235 -10.19452,6.52079 -12.6128,8.47937 -0.69421,0.56225 -1.8247,1.44842 -2.5122,1.96926 -0.6875,0.52084 -1.925,1.54352 -2.75,2.27262 -4.68993,4.14473 -6.41729,5.25551 -9.57846,6.15945 -2.14882,0.61444 -5.80448,0.60362 -7.92154,-0.0235 z M 21.999971,209.47304 c -7.27926,-0.54409 -11.65138,-2.26843 -13.5375006,-5.33913 -0.76397,-1.24379 -0.63398,-3.60979 0.29335,-5.33951 1.4695906,-2.74118 3.9846706,-4.84884 10.6445606,-8.92025 18.323801,-11.20192 24.929519,-17.55495 21.943139,-21.10373 -1.2369,-1.46985 -2.853158,-2.02959 -7.593548,-2.62979 -5.815791,-0.73637 -7.095051,-1.05024 -9.122411,-2.23825 -2.40565,-1.40967 -3.37759,-3.13347 -3.37759,-5.99037 0,-0.99526 0.17631,-2.36394 0.3918,-3.04149 0.54668,-1.71891 2.23533,-5.13622 3.41732,-6.91557 3.61665,-5.44446 11.672701,-13.97592 19.565879,-20.72052 11.015651,-9.41268 20.647841,-15.84864 29.625002,-19.79458 0.48125,-0.21154 1.55,-0.686 2.375,-1.05437 0.825,-0.36836 2.45625,-1.05728 3.625,-1.53092 1.16875,-0.47365 2.35,-0.96738 2.625,-1.09719 1.6573,-0.78226 10.173981,-3.73899 14.125001,-4.903761 0.75625,-0.222945 1.65625,-0.499304 2,-0.614132 0.34375,-0.114826 1.131257,-0.33108 1.750007,-0.480563 0.61875,-0.149482 1.74375,-0.425481 2.5,-0.613328 4.34254,-1.078661 10.78034,-2.377509 14.25,-2.874991 10.0858,-1.446104 18.20439,-1.481508 23.25,-0.101388 3.44666,0.942762 6.11447,2.956012 6.85178,5.170673 0.5044,1.51504 0.50117,2.28331 -0.016,3.82137 -0.81346,2.41897 -2.95462,5.08037 -5.71059,7.09807 -3.2399,2.37201 -9.70039,5.86759 -15.00014,8.11613 -1.2375,0.52503 -2.7,1.15581 -3.25,1.40173 -0.55,0.24592 -3.19375,1.30629 -5.875,2.35638 -2.68125,1.05009 -5.1,2.00975 -5.375,2.13257 -0.275,0.12282 -1.79375,0.72686 -3.375,1.34232 -3.018,1.17467 -5.29732,2.13383 -9.875007,4.1555 -9.908341,4.37589 -15.834381,8.53098 -17.752031,12.44697 -1.31539,2.68612 -0.71015,6.4285 1.36044,8.41207 2.08091,1.99345 5.92889,0.91549 13.965421,-3.91224 1.55311,-0.933 2.873,-1.69635 2.9331,-1.69635 0.0601,0 0.816757,-0.43299 1.681457,-0.96219 4.31639,-2.64168 9.45769,-5.00207 13.27614,-6.09514 2.39055,-0.68431 7.22661,-0.75117 8.97356,-0.12407 3.93659,1.41313 7.18783,5.03202 8.20995,9.13833 0.65727,2.64055 -0.81454,7.1266 -3.68569,11.23394 -1.54609,2.21176 -2.1855,2.92886 -5.95843,6.68229 -5.95503,5.92425 -13.9944,11.86146 -25.628917,18.9274 -5.45447,3.31263 -6.27794,3.78825 -10.000001,5.7757 -1.30625,0.6975 -3.275,1.7513 -4.375,2.34178 -2.82902,1.51863 -11.19594,5.60726 -14.625001,7.14675 -2.86975,1.28839 -3.77995,1.68003 -3.90447,1.68003 -0.0768,0 -0.86883,0.33747 -1.76004,0.74993 -0.8912,0.41246 -1.6799,0.74993 -1.75265,0.74993 -0.0728,0 -0.48678,0.15346 -0.92006,0.34102 -0.68718,0.29746 -1.46446,0.60788 -3.53778,1.41281 -2.5917,1.00621 -7.477551,2.58294 -10.875001,3.50952 -2.33702,0.63739 -8.039288,1.37147 -14.374998,1.85058 -2.750001,0.20795 -5.112501,0.36389 -5.250001,0.34651 -0.1375,-0.0174 -1.54375,-0.12829 -3.125,-0.24648 z m 367.555439,-6.33148 c -3.2199,-1.00537 -7.07631,-4.39197 -7.86792,-6.90941 -0.95062,-3.02315 -0.34152,-5.40038 2.45888,-9.59661 2.28078,-3.41762 5.92433,-6.61558 9.35362,-8.20975 2.93203,-1.36302 4.8755,-1.91231 8.25,-2.33178 3.289,-0.40883 4.62836,-0.31055 8,0.58704 2.45279,0.65298 4.25215,2.27629 4.24543,3.83005 -0.008,1.74787 -1.5643,4.72842 -4.50441,8.6242 -1.24513,1.64985 -3.40301,4.51833 -4.79529,6.37441 -1.39228,1.85608 -3.15901,3.95777 -3.92607,4.67044 -1.35211,1.25621 -3.50176,2.51074 -5.24447,3.06066 -1.16149,0.36651 -4.66461,0.30827 -5.96977,-0.0993 z m -168.08515,-7.60057 c -3.95143,-1.39014 -6.22028,-5.50085 -6.22028,-11.26989 0,-2.63595 0.35798,-3.63114 1.83872,-5.11175 1.41886,-1.41873 3.81324,-2.51295 6.63253,-3.03101 1.99151,-0.36595 2.58509,-0.38131 4.35478,-0.1127 4.73626,0.71891 7.17214,2.07727 8.85338,4.9371 0.63554,1.08106 0.69559,1.39902 0.69554,3.68298 -5e-5,2.25262 -0.0718,2.64616 -0.72611,3.98037 -0.41731,0.85098 -1.37411,2.1266 -2.24999,2.99972 -1.51091,1.50614 -4.15279,3.14397 -5.07134,3.14397 -0.26263,0 -0.58438,0.10133 -0.71501,0.22518 -0.35018,0.33201 -4.00279,1.02962 -5.20174,0.99349 -0.56967,-0.0172 -1.55538,-0.21403 -2.19048,-0.43746 z m 34.52972,-20.07181 c -4.54536,-0.93868 -7.83916,-3.2482 -9.53215,-6.68366 -0.74951,-1.52093 -0.81284,-1.84115 -0.82033,-4.14794 -0.009,-2.82221 0.28084,-3.87917 1.88099,-6.85544 2.13179,-3.96514 6.32801,-8.2067 10.5286,-10.64235 3.26353,-1.89232 5.8532,-3.84879 6.68714,-5.05207 0.64402,-0.92925 0.72663,-2.32724 0.18561,-3.14098 -0.20358,-0.30619 -1.00413,-0.93714 -1.779,-1.40208 -3.39496,-2.03709 -7.93738,-2.32404 -13.40086,-0.84653 -3.90928,1.05718 -5.32608,1.49845 -6.625,2.06334 -0.55,0.23919 -1.80535,0.73746 -2.78967,1.10725 -2.48478,0.9335 -12.52156,6.02087 -16.33533,8.27993 -1.3579,0.80434 -1.6774,0.98538 -4.625,2.62071 -0.825,0.45771 -2.79293,1.61645 -4.37317,2.57497 -3.90311,2.3675 -15.98462,9.41842 -16.13814,9.41842 -0.068,0 -0.54327,0.26139 -1.05616,0.58087 -1.01077,0.6296 -4.60091,2.5658 -8.18253,4.41292 -5.19062,2.67692 -11.7838,5.08548 -15.16736,5.54079 -5.14377,0.69218 -8.27109,-0.50143 -10.09551,-3.85318 -0.60824,-1.11743 -0.70963,-1.5857 -0.71539,-3.30423 -0.007,-2.20976 0.3143,-3.28017 1.90027,-6.32246 2.58229,-4.95351 9.81014,-12.69891 17.57799,-18.83669 1.1,-0.86916 2.05625,-1.63892 2.125,-1.71056 0.89915,-0.93699 9.15839,-6.67503 13.125,-9.1185 1.1,-0.67761 2.92219,-1.82907 4.04932,-2.55879 1.12712,-0.72973 2.11373,-1.32677 2.19247,-1.32677 0.0787,0 0.56279,-0.26433 1.07568,-0.58739 1.05917,-0.66716 3.10758,-1.78995 6.55753,-3.59438 7.89673,-4.1302 12.04956,-7.93195 13.58436,-12.43592 0.52057,-1.52764 0.52413,-2.47308 0.0149,-3.96734 -0.48795,-1.43192 -1.35307,-2.33324 -3.12799,-3.25887 -2.41519,-1.25952 -6.85763,-1.16804 -11.5963,0.2388 -2.325,0.69026 -2.99729,0.91757 -4,1.3525 -0.55,0.23856 -1.6174,0.7028 -2.372,1.03163 -2.37659,1.03566 -5.25349,2.56206 -9.128,4.84305 -7.85034,4.62162 -12.66002,6.50975 -18.17316,7.13423 -4.82152,0.54613 -8.55583,-1.06565 -9.94386,-4.29192 -0.95696,-2.2243 -0.94001,-6.15897 0.0381,-8.83732 0.2843,-0.7785 1.76697,-3.86875 2.2834,-4.759155 1.56456,-2.697524 5.77472,-7.176622 8.88092,-9.44821 3.00282,-2.195987 10.43853,-6.725671 16.16462,-9.847156 1.8253,-0.995032 18.04657,-9.060223 21,-10.441165 2.11912,-0.990842 4.65524,-2.125911 4.75,-2.125911 0.0496,0 0.85734,-0.346713 1.79506,-0.770473 0.93772,-0.423761 2.15494,-0.973306 2.70494,-1.221212 1.84802,-0.832971 10.47483,-4.438925 13.125,-5.486167 1.44375,-0.570514 2.85,-1.132734 3.125,-1.249379 0.275,-0.116644 0.95,-0.3816 1.5,-0.588791 1.77516,-0.66872 3.23134,-1.24283 4.03778,-1.591919 0.43329,-0.187558 0.94892,-0.341013 1.14585,-0.341013 0.19692,0 0.42659,-0.06854 0.51037,-0.15231 0.3549,-0.354871 11.2247,-3.995748 16.68101,-5.587366 1.03125,-0.300817 2.15625,-0.642062 2.5,-0.75832 0.34375,-0.11626 1.3,-0.401448 2.125,-0.633753 0.825,-0.232305 2.00625,-0.570226 2.625,-0.750935 0.61875,-0.18071 1.9125,-0.507857 2.875,-0.726993 0.9625,-0.219138 2.14375,-0.507478 2.625,-0.640758 0.48125,-0.133279 1.55,-0.365819 2.375,-0.516755 0.825,-0.150935 2.34375,-0.434687 3.375,-0.630569 5.55858,-1.055792 9.9178,-1.426208 14.875,-1.263983 5.04994,0.165265 7.62913,0.738602 10.26132,2.281022 1.33198,0.780521 3.00848,2.51589 3.50551,3.628589 0.2156,0.482671 0.52501,1.147715 0.68759,1.477875 0.16523,0.335549 0.29559,1.658494 0.29559,2.999721 0,2.940902 -0.48935,4.14497 -2.57175,6.327946 -1.8531,1.942604 -7.05821,5.021324 -9.80753,5.800968 -0.3414,0.09681 -0.84572,0.272518 -1.12073,0.390458 -1.26672,0.543263 -6.98112,2.179793 -11.5,3.29345 -1.1,0.271089 -2.9,0.721359 -4,1.000601 -1.1,0.27924 -3.125,0.779878 -4.5,1.112527 -3.49739,0.846116 -7.8994,2.157086 -9.5,2.829213 -3.69901,1.553299 -5.88314,3.151933 -6.38541,4.673664 -0.63966,1.938027 0.41054,4.379174 2.32319,5.400153 0.96361,0.51438 1.37552,0.564254 4.43722,0.537259 3.69218,-0.03256 5.45792,-0.335337 12.375,-2.122022 2.2,-0.568261 4.61875,-1.184052 5.375,-1.368423 0.75625,-0.184369 2.07812,-0.508111 2.9375,-0.719424 3.19503,-0.785631 4.75084,-1.136843 7.1875,-1.622523 1.375,-0.274067 3.00626,-0.615095 3.62501,-0.757837 3.7342,-0.861463 12.40398,-1.291252 15.10332,-0.74872 5.84515,1.174803 8.16418,2.309406 11.32206,5.53941 1.83088,1.872686 2.69691,3.837519 2.67972,6.07964 -0.0162,2.108385 -0.52832,3.366928 -2.23799,5.499489 -1.52114,1.8974 -3.63983,3.749073 -6.45429,5.640857 -1.21386,0.81592 -2.25134,1.48349 -2.30551,1.48349 -0.0542,0 -0.80361,0.43105 -1.66541,0.95788 -0.86179,0.52683 -2.9169,1.6648 -4.5669,2.52882 -1.65,0.86402 -4.29375,2.24751 -5.875,3.07442 -9.90022,5.1773 -12.16143,6.56587 -14.52547,8.91987 -1.452,1.44584 -1.94071,2.11006 -2.07102,2.81484 -0.35194,1.90342 0.50137,3.38431 2.49295,4.32639 1.52357,0.7207 6.1692,1.37243 9.84608,1.3813 3.2926,0.008 8.27572,0.78721 10.39429,1.62548 3.79659,1.50224 5.95273,3.98684 6.82775,7.86788 1.03724,4.60056 0.2946,7.57001 -2.54721,10.18503 -2.53497,2.33266 -5.69278,3.80164 -14.66737,6.82311 -7.52789,2.53442 -11.43688,3.95474 -13.41279,4.87349 -0.43328,0.20147 -0.85234,0.36631 -0.93124,0.36631 -0.37965,0 -6.46089,2.95348 -9.79529,4.75729 -3.55842,1.925 -9.98482,6.29834 -11.98569,8.15659 -3.52769,3.27624 -7.78698,4.63639 -11.875,3.79217 z m 102.50001,-31.32173 c -2.98205,-0.30963 -5.91877,-0.79042 -7,-1.14603 -0.34375,-0.11305 -1.01875,-0.27537 -1.5,-0.36073 -0.48125,-0.0854 -1.1,-0.24543 -1.375,-0.35574 -0.275,-0.11032 -1.56875,-0.61667 -2.875,-1.12522 -7.54763,-2.93847 -11.56935,-7.89244 -10.12771,-12.47538 1.13107,-3.59563 5.44389,-7.10753 14.44726,-11.76431 11.44347,-5.91887 15.54671,-10.08222 18.13563,-18.401321 0.2884,-0.926734 0.66321,-3.585484 1.05718,-7.499303 0.13148,-1.306128 0.34241,-2.824737 0.46875,-3.374686 1.82722,-7.954167 3.12285,-11.348364 6.34545,-16.623455 4.62521,-7.571031 11.6729,-12.838498 17.17344,-12.835488 2.1945,0.0012 3.14005,0.398401 4.17458,1.753634 0.62758,0.822141 0.70909,1.153597 0.78375,3.187466 0.0732,1.992852 -0.009,2.544513 -0.67098,4.519701 -0.41488,1.237385 -1.32518,3.318442 -2.0229,4.624571 -2.93372,5.491923 -3.41186,7.070828 -2.98062,9.842556 0.15611,1.003349 0.38842,1.456005 1.07056,2.086007 1.16193,1.073125 1.87184,1.21534 3.32296,0.665686 1.71973,-0.6514 3.28137,-2.371948 4.6594,-5.133559 0.64116,-1.284891 1.16518,-2.415144 1.16449,-2.511672 -0.002,-0.332018 2.3579,-3.575767 3.49008,-4.796499 1.99635,-2.152494 4.85512,-4.851429 6.39138,-6.034038 4.59363,-3.536169 7.30018,-5.464251 9.90509,-7.056158 6.17622,-3.774395 13.08317,-6.549399 19.08721,-7.668673 1.2375,-0.230696 2.8125,-0.535574 3.5,-0.677507 1.80974,-0.373619 11.02332,-0.120683 13.5,0.370607 2.73157,0.541853 3.49024,0.75144 5.375,1.484878 4.54931,1.770324 7.96672,4.394997 9.34795,7.17951 0.5523,1.113427 0.76618,2.867264 0.53645,4.399053 -0.15648,1.043387 -0.39361,1.410459 -1.84448,2.855203 -1.86349,1.855621 -3.29369,2.628605 -7.00056,3.783611 -3.20146,0.997526 -6.51898,2.227806 -8.66612,3.213768 -0.96153,0.441535 -1.97324,0.899536 -2.24824,1.017781 -0.275,0.118244 -1.0625,0.55416 -1.75,0.968703 -0.6875,0.414542 -1.41445,0.832615 -1.61544,0.929053 -2.04681,0.982074 -6.56916,4.615899 -9.88665,7.944191 -6.19223,6.212385 -11.39612,14.653992 -15.41698,25.00898 -1.18467,3.0509 -2.26501,5.30522 -3.41422,7.12434 -3.10703,4.91823 -9.03191,10.77773 -15.04171,14.87572 -2.12181,1.44684 -6.42172,4.12252 -6.62501,4.12252 -0.0591,0 -1.37701,0.60359 -2.92871,1.34132 -3.40367,1.61822 -3.80067,1.78296 -6.19478,2.57055 -3.53977,1.16448 -6.63756,1.97191 -9.5015,2.47653 -5.06393,0.89227 -6.87227,1.13571 -11,1.48086 -5.08678,0.42533 -8.24641,0.42867 -12.25,0.013 z M 0.01174,102.20588 0.02354,87.64473 4.0406902,84.645009 C 11.470241,79.09716 17.807341,73.360217 20.888191,69.393055 c 1.44678,-1.862994 2.88548,-4.786268 3.04291,-6.182854 0.25079,-2.224835 -1.44462,-4.11444 -4.48364,-4.997206 -0.72735,-0.211277 -2.61621,-0.575085 -4.19746,-0.808461 C 8.0471704,56.341474 3.9452502,54.718064 1.0347301,51.778584 L 0,50.733556 V 43.661092 36.58863 l 1.2811901,-1.969397 c 2.7228901,-4.185541 7.8337804,-9.630805 13.3438109,-14.216829 0.825,-0.686646 1.725,-1.452635 2,-1.702192 0.83018,-0.75337 5.84353,-4.025976 8.375,-5.467022 2.67797,-1.524428 11.484981,-5.9097406 13.380961,-6.6628306 0.68422,-0.2717747 2.116388,-0.8988565 3.182598,-1.3935105 1.0662,-0.494654 2.00545,-0.8993664 2.08721,-0.8993664 0.0818,0 0.50317,-0.1662946 0.93645,-0.3695457 C 45.0205,3.7046957 46.10625,3.2677663 47,2.9369871 47.89375,2.6061978 49.75,1.9189217 51.125001,1.409689 c 1.375,-0.50923268 2.69535,-1.02846443 2.93411,-1.15384278 0.2534,-0.13307763 11.28079,-0.22796881 26.491461,-0.22796881 H 106.60793 L 105.24147,1.4269474 C 100.47479,6.3074138 91.490433,11.521559 68.500001,22.750186 52.724071,30.45522 47.77758,34.119039 50.311771,36.222034 c 1.71609,1.424097 8.98444,1.648017 18.06323,0.556488 4.256371,-0.511732 10.698821,-1.908103 16.750001,-3.630483 2.42636,-0.690625 2.85243,-0.805955 6.000001,-1.624059 3.11668,-0.810074 8.65238,-2.175607 11.250007,-2.775132 0.825,-0.190402 2.7375,-0.343228 4.25,-0.339608 2.88189,0.007 3.73645,0.246007 4.70543,1.316627 0.86303,0.953542 0.93141,4.181872 0.14666,6.923607 -1.55214,5.422786 -3.07624,8.664045 -7.04639,14.98538 -0.16814,0.267703 -1.08289,1.561332 -2.0328,2.874733 -1.54014,2.129503 -2.33741,3.10113 -5.647907,6.883045 -2.0044,2.289839 -7.715681,7.783639 -11.875001,11.422817 -4.07574,3.566056 -12.05256,9.482335 -18.375001,13.628455 -1.58125,1.03695 -3.325,2.1899 -3.875,2.562111 -0.84705,0.573242 -3.10159,1.966189 -4.67486,2.88832 -0.23457,0.137487 -1.19118,0.715465 -2.12581,1.284397 -0.93463,0.56893 -2.26183,1.34611 -2.94933,1.727067 -0.6875,0.380957 -1.66964,0.955996 -2.18253,1.277865 -0.51289,0.32187 -0.977331,0.585218 -1.032081,0.585218 -0.0915,0 -2.61692,1.378763 -5.03539,2.749083 -1.20098,0.680495 -12.321768,6.250085 -12.479498,6.250085 -0.0608,0 -0.87784,0.34672 -1.81556,0.77048 -3.245561,1.46668 -3.716031,1.67381 -6.157601,2.71098 -3.91243,1.66197 -9.09907,3.50551 -13.04734,4.63754 -1.5940505,0.45704 -2.2562306,0.64894 -4.2500007,1.23164 -0.6875,0.20093 -2.0937501,0.55226 -3.1250001,0.78075 -1.0312501,0.22848 -2.2011601,0.51717 -2.5998101,0.6415 -0.39864006,0.12435 -0.82051008,0.22608 -0.93750009,0.22608 C 0.09571,116.76702 0.0053,110.21452 0.01177,102.20587 Z M 597.5,100.89653 c -5.6944,-0.973889 -12.12026,-4.529744 -18.01538,-9.969097 -0.76471,-0.70559 -2.05103,-1.845337 -2.85848,-2.532773 -0.80744,-0.687436 -1.86927,-1.598095 -2.35961,-2.023688 -2.67144,-2.318677 -9.68697,-7.071655 -13.89153,-9.411412 -0.956,-0.531994 -4.83605,-2.43861 -4.96269,-2.43861 -0.0701,0 -0.89465,-0.344607 -1.83237,-0.765793 -2.51789,-1.130939 -2.51897,-1.13136 -4.95494,-1.93707 -4.50668,-1.490606 -8.88875,-2.64133 -12,-3.151173 -1.375,-0.225324 -3.11875,-0.514944 -3.875,-0.643601 -2.85257,-0.485293 -9.329,-1.025793 -15,-1.251848 -15.55484,-0.620039 -19.28049,-1.80201 -22.84969,-7.249122 -2.30884,-3.523628 -2.22147,-6.586918 0.25962,-9.102854 0.87484,-0.88712 4.07723,-3.146007 4.46005,-3.146007 0.0866,0 0.6294,-0.209551 1.20624,-0.465668 0.89229,-0.396186 2.5904,-1.037718 5.42378,-2.049054 0.34375,-0.122698 1.13125,-0.345028 1.75,-0.494064 2.54303,-0.612523 9.75594,-2.162299 12.375,-2.658903 1.1,-0.20857 2.7875,-0.53758 3.75,-0.731122 0.9625,-0.193552 2.70625,-0.515492 3.875,-0.715423 1.16875,-0.199932 2.35,-0.417941 2.625,-0.484455 0.275,-0.06649 1.34375,-0.304702 2.375,-0.529291 5.75559,-1.253473 7.32606,-1.715411 10,-2.941387 2.64252,-1.211577 2.68721,-2.479119 0.125,-3.54586 -2.27016,-0.945142 -7.76317,-1.883405 -13.875,-2.36999 -1.85625,-0.147776 -4.5,-0.381814 -5.875,-0.520081 -3.3738,-0.339249 -16.09358,-0.737522 -23.65121,-0.740552 -8.1418,-0.003 -11.91792,-0.31896 -15.07356,-1.260243 -3.81242,-1.137194 -5.90986,-2.479099 -7.3597,-4.708632 -0.91323,-1.404339 -0.91554,-1.414828 -0.91554,-4.157634 0,-3.016529 0.24236,-3.739512 2.24789,-6.705746 2.42384,-3.5849372 7.53894,-7.6752071 13.45449,-10.7588205 l 2.70238,-1.40867909 h 39.74926 39.74926 l -0.45164,0.77454802 C 573.57824,1.2284258 572.86875,2.001034 572.25,2.5193259 c -1.58857,1.3306663 -2.91565,2.0072934 -8.375,4.2701031 -0.275,0.1139894 -1.70586,0.6056038 -3.17968,1.0924785 -4.28333,1.4150085 -5.85806,2.3559015 -7.01221,4.1897505 -1.70185,2.704079 0.40465,6.390236 4.88624,8.550426 3.79185,1.82772 6.53706,2.300836 11.72626,2.020962 8.75042,-0.471966 18.60746,-0.203531 22.20762,0.604764 0.61697,0.138517 2.02177,0.438119 3.12177,0.665788 1.1,0.227658 2.53437,0.583935 3.1875,0.791716 L 600,25.083099 v 13.252908 13.252909 l -0.9375,-0.150481 c -0.51563,-0.08276 -1.66875,-0.322276 -2.5625,-0.532249 -3.50312,-0.823004 -8.86967,-1.74726 -11.68621,-2.012658 -3.37575,-0.318092 -6.06379,0.912217 -6.06379,2.775384 0,3.286761 5.06983,8.939953 12.75,14.217092 2.30611,1.584558 7.35676,4.688246 8.0625,4.954516 0.41003,0.1547 0.4375,1.115141 0.4375,15.296504 0,11.952169 -0.0657,15.126056 -0.3125,15.105816 -0.17188,-0.0141 -1.15625,-0.16993 -2.1875,-0.34631 z M 135.31088,74.134246 c -1.59552,-0.429567 -2.39682,-0.930994 -3.12987,-1.958569 -0.47705,-0.668726 -0.55527,-1.098995 -0.5507,-3.029228 0.006,-2.485957 0.28731,-3.444401 1.94503,-6.624384 3.23215,-6.200176 10.71486,-14.896263 17.96062,-20.873056 0.33336,-0.274974 1.22101,-1.010426 1.97256,-1.634338 1.8372,-1.525158 4.39363,-3.374006 7.11646,-5.146731 2.76271,-1.798673 3.32894,-2.118873 7.875,-4.453177 4.52959,-2.325853 5.625,-3.32631 5.625,-5.137402 0,-1.054352 -0.11827,-1.345965 -0.85357,-2.104525 -0.95186,-0.981988 -2.45228,-1.760706 -4.51809,-2.344892 -2.96368,-0.838102 -9.07037,-0.308511 -12.07994,1.047613 -0.43912,0.197872 -1.56562,0.706344 -2.50334,1.129935 -0.93772,0.423601 -1.7455,0.770178 -1.79506,0.770178 -0.0496,0 -0.80109,0.32279 -1.67006,0.717314 -2.73763,1.242914 -7.6619,2.946376 -10.49257,3.629692 -6.45642,1.558566 -11.39969,1.482343 -13.89673,-0.21428 -1.10188,-0.74868 -1.49306,-1.321187 -1.78233,-2.608507 -0.89895,-4.000568 4.46515,-10.641381 14.59169,-18.0646514 2.89828,-2.1245925 6.67827,-4.7075925 6.88913,-4.7075925 0.0903,0 1.14166,-0.5624477 2.33642,-1.2498838 l 2.17231,-1.24988389 h 33.25982 33.25981 l -1.02202,1.16096209 c -1.86632,2.120053 -1.90406,3.8437528 -0.10373,4.7376497 0.80731,0.4008428 1.47022,0.4704563 4.20826,0.441919 1.7875,-0.018598 3.925,-0.1576654 4.75,-0.3089613 3.81378,-0.699405 8.55778,-1.8229506 12.25,-2.9012404 0.6875,-0.2007813 2.375,-0.6937555 3.75,-1.0954982 1.375,-0.4017427 2.725,-0.7896666 3,-0.8620399 0.275,-0.072393 1.31539,-0.36619595 2.31199,-0.6529293 1.80833,-0.52028165 1.89587,-0.52121157 43.37116,-0.45810743 l 41.55918,0.06319413 -1.84542,1.9425495 c -2.76715,2.9128093 -6.98446,5.5123277 -11.6469,7.1790628 -1.2375,0.4423789 -2.475,0.8984669 -2.75,1.0135359 -1.59932,0.669158 -7.42271,2.380419 -10.25,3.01205 -0.9774,0.21836 -1.30265,0.303652 -4.125,1.081779 -0.75626,0.208501 -2.83751,0.723373 -4.62501,1.144174 -1.7875,0.420791 -3.7,0.870939 -4.25,1.000327 -4.37525,1.029235 -7.80766,1.855758 -9.5,2.287588 -1.1,0.280683 -2.61875,0.656729 -3.375,0.835662 -2.73068,0.64607 -11.38935,2.890721 -12,3.110851 -0.34375,0.123908 -1.3,0.415361 -2.125,0.64767 -7.30702,2.057518 -7.26625,2.04488 -18.125,5.617038 -4.19375,1.379601 -7.79744,2.604628 -8.00821,2.722277 -0.21076,0.117639 -0.74384,0.293102 -1.18463,0.389903 -0.44078,0.09679 -0.86561,0.279844 -0.94405,0.406753 -0.0784,0.126908 -0.31585,0.230748 -0.52758,0.230748 -0.21173,0 -0.73947,0.154576 -1.17275,0.343508 -0.43328,0.188933 -2.02528,0.822754 -3.53778,1.408479 -1.5125,0.585736 -3.0875,1.204398 -3.5,1.374803 -0.4125,0.170414 -1.65,0.673847 -2.75,1.118746 -3.40407,1.376802 -4.78284,1.976156 -9.75,4.238326 -0.9625,0.438349 -1.975,0.896176 -2.25,1.017395 -3.09633,1.364823 -16.51025,8.133392 -23.25,11.731781 -1.2375,0.660708 -3.375,1.79474 -4.75,2.520071 -1.375,0.72533 -3.07363,1.63348 -3.77473,2.018109 -4.86003,2.666243 -14.75166,7.38922 -19.22527,9.179527 -0.6875,0.275132 -2.09375,0.837723 -3.125,1.250201 -2.98659,1.194571 -7.99568,2.813969 -11.75,3.798674 -0.48125,0.126225 -1.49375,0.395122 -2.25,0.597548 -1.601,0.428542 -6.36186,1.156448 -7.40708,1.132496 -0.39486,-0.009 -1.30927,-0.175662 -2.03202,-0.370252 z m 211.40441,-2.336163 c -1.49274,-0.310323 -3.63864,-1.53173 -4.72239,-2.687899 -4.00208,-4.269514 -4.29175,-12.885026 -0.84766,-25.211384 1.40491,-5.028142 4.24758,-12.996242 5.99986,-16.817777 0.33269,-0.725562 0.60489,-1.365723 0.60489,-1.422588 0,-0.353537 4.68362,-9.977462 5.96693,-12.26089 1.97733,-3.5182831 4.99216,-7.7280319 8.03307,-11.2169676 l 1.875,-2.15124013 21.92462,-7.2993e-4 21.92462,-7.2993e-4 0.6248,0.57898619 c 1.64157,1.5212186 5.53278,1.5268181 14.15096,0.0203981 1.70421,-0.29789232 4.39924,-0.44509864 9.54198,-0.52120157 L 438.95896,0 l 1.46113,0.73751146 c 1.90164,0.95985084 4.07592,3.13546864 4.96033,4.96334874 0.60073,1.2415946 0.70224,1.7585266 0.70224,3.5761977 0,1.7938031 -0.10438,2.3403021 -0.67006,3.5082241 -1.61412,3.33254 -5.09999,6.098793 -10.53761,8.362203 -2.63257,1.095808 -7.16449,2.340532 -10.875,2.986902 -1.30625,0.227549 -2.99375,0.523401 -3.75,0.657449 -0.75625,0.134038 -2.5,0.353857 -3.875,0.488485 -7.23429,0.708294 -7.75491,0.787976 -12.5,1.913292 -3.99559,0.947562 -5.83789,1.50909 -7.94598,2.421895 -0.52029,0.225289 -1.07027,0.409622 -1.22218,0.409622 -0.49398,0 -5.82361,2.679641 -8.23298,4.139395 -7.83691,4.748129 -15.6867,12.371489 -21.99037,21.356091 -7.29417,10.396357 -10.39708,14.102116 -12.94501,15.460023 -1.53034,0.815584 -3.34931,1.123883 -4.82318,0.817484 z"
     id="path29053" /><path
     style="fill:#ffffff;fill-opacity:1"
     d="m 309.27467,222.875 c 36.05078,-5.56875 65.76781,-10.125 66.03785,-10.125 0.30402,0 0.44274,0.12569 0.36431,0.33009 -0.0697,0.18155 -1.35831,2.00968 -2.86364,4.0625 -3.64028,4.96427 -3.68139,5.04784 -3.68037,7.48241 6.6e-4,1.57825 0.11672,2.21839 0.55038,3.03564 1.21538,2.2904 3.79133,3.62846 6.0209,3.12751 1.39416,-0.31325 2.00859,-0.74224 3.34428,-2.33497 1.96238,-2.34002 14.69553,-19.89529 15.36164,-21.17919 1.13095,-2.17986 0.94953,-4.56715 -0.5158,-6.78739 -0.36833,-0.55809 -3.17645,-2.7837 -7.55277,-5.98605 -11.18052,-8.18128 -11.65478,-8.52909 -12.96645,-9.50935 -2.18156,-1.63036 -3.28809,-2.06858 -4.86183,-1.92543 -1.68287,0.15308 -2.99637,0.88454 -3.82411,2.12957 -1.04984,1.57909 -1.27173,2.43352 -1.11561,4.29572 0.23643,2.82021 0.95757,3.67342 6.55155,7.75146 3.22172,2.34864 4.15602,3.25748 3.34876,3.25748 -0.1721,0 -8.05906,1.19629 -17.52659,2.65841 -9.46752,1.46213 -17.27698,2.59511 -17.35435,2.51774 -0.24358,-0.24358 -6.3237,-40.0436 -6.14139,-40.20105 0.0955,-0.0824 8.44232,-1.41515 18.54857,-2.96156 10.10625,-1.54641 18.825,-2.93244 19.375,-3.08007 1.31368,-0.35261 2.08022,-1.06553 2.27774,-2.11841 0.30325,-1.61648 -0.91207,-2.81506 -2.8544,-2.81506 -0.53707,0 -9.34039,1.29174 -19.56292,2.87054 -10.27663,1.58715 -18.64836,2.77032 -18.72496,2.64638 -0.1875,-0.30337 -6.10501,-38.75658 -5.98242,-38.87496 0.0533,-0.0515 8.57337,-1.40125 18.93342,-2.99945 10.36005,-1.5982 19.1913,-3.05605 19.625,-3.23966 1.7688,-0.74885 2.37293,-2.48962 1.30667,-3.76515 -1.08698,-1.30032 -1.79802,-1.24002 -21.68148,1.83866 -9.85234,1.5255 -18.20547,2.77364 -18.5625,2.77364 -0.35703,0 -0.64915,-0.11957 -0.64915,-0.26571 0,-1.15704 -6.09328,-39.54346 -6.37695,-40.173501 -0.43403,-0.96398 -1.69064,-1.801653 -2.45489,-1.63646 -1.42571,0.308169 -1.89233,0.839993 -2.25986,2.575671 -0.0728,0.34375 1.24735,9.546786 2.93365,20.45119 1.6863,10.90441 2.96612,19.88792 2.84404,19.96337 -0.24984,0.15441 -38.73105,6.12637 -38.82475,6.02527 -0.0331,-0.0357 -1.43196,-8.95233 -3.10868,-19.81483 -1.67673,-10.8625 -3.19336,-20.096736 -3.37028,-20.520525 -0.91375,-2.188657 -3.54885,-2.46391 -4.49523,-0.469553 -0.21288,0.448603 -0.38777,1.079891 -0.38866,1.40286 -8.9e-4,0.32297 1.36761,9.450595 3.04111,20.283608 1.8083,11.7057 2.94997,19.77904 2.81411,19.9001 -0.23719,0.21135 -41.57576,6.6401 -41.72594,6.48899 -0.19422,-0.19541 -5.72634,-36.695146 -5.5834,-36.83808 0.0858,-0.08582 2.22691,1.361361 4.75798,3.215953 6.16342,4.516117 6.20967,4.541597 8.19775,4.514507 1.20108,-0.0164 1.86212,-0.16515 2.53393,-0.57034 2.62701,-1.58441 3.54896,-5.323926 2.03269,-8.244778 -0.77891,-1.500458 -1.40633,-2.038073 -7.97173,-6.830711 -1.63344,-1.192383 -5.50114,-4.031411 -8.59489,-6.308952 -3.09375,-2.277541 -6.11559,-4.383651 -6.71521,-4.680246 -1.31581,-0.650854 -3.33515,-0.713193 -4.44873,-0.137337 -1.22364,0.63277 -2.19826,1.821148 -7.72513,9.419504 -2.85042,3.91875 -6.06303,8.30625 -7.13915,9.75 -2.99978,4.024611 -3.34966,4.759639 -3.33202,7 0.0177,2.2512 0.57037,3.49893 2.14778,4.84913 1.68589,1.44306 3.73468,1.78347 5.58746,0.92836 1.38285,-0.63823 1.50548,-0.78616 7.58541,-9.150558 0.87198,-1.199612 1.67331,-2.084546 1.78074,-1.966522 0.10743,0.118025 4.82552,30.21837 10.48465,66.88965 5.65912,36.67128 10.45443,67.07022 10.65623,67.55319 0.90463,2.1651 2.92,3.61766 5.04436,3.6357 0.71577,0.006 30.79749,-4.5452 66.84828,-10.11395 z m -62.20188,-3.19569 c -0.32887,-0.50906 -6.3229,-39.7792 -6.10499,-39.99711 0.37578,-0.37578 41.54243,-6.61787 41.72284,-6.32643 0.33064,0.53411 6.27546,39.77186 6.05901,39.99143 -0.12048,0.12221 -9.19781,1.60721 -20.17185,3.3 -10.97404,1.69279 -20.25781,3.136 -20.63061,3.20711 -0.39206,0.0748 -0.76068,0.001 -0.8744,-0.175 z m 47.1595,-7.53815 c -0.26249,-0.6309 -6.2745,-39.68226 -6.1312,-39.82557 0.2317,-0.23169 38.75887,-6.05361 38.91017,-5.87979 0.18851,0.21655 6.33861,40.05147 6.20281,40.17626 -0.049,0.045 -8.79161,1.42361 -19.42805,3.06355 -19.10375,2.94543 -19.34159,2.97542 -19.55373,2.46555 z M 239.92334,174.0625 c -0.24223,-0.42776 -5.99563,-38.57354 -5.84122,-38.72796 0.27397,-0.27396 41.52088,-6.58154 41.72216,-6.38026 0.26437,0.26437 6.17251,38.63631 5.98061,38.84255 -0.15631,0.16799 -40.37176,6.45317 -41.2903,6.45317 -0.25579,0 -0.51286,-0.0844 -0.57125,-0.1875 z m 47.20912,-7.37495 c -0.38337,-1.17625 -5.91918,-38.49618 -5.73471,-38.66084 0.28778,-0.25687 38.55914,-6.1531 38.7433,-5.96894 0.25408,0.25407 6.11485,38.78661 5.92372,38.9464 -0.16359,0.13677 -38.10434,6.0353 -38.63512,6.00649 -0.10744,-0.006 -0.24118,-0.15124 -0.29719,-0.32311 z"
     id="path74894"
     sodipodi:nodetypes="sssssssssssssssssssssssssssssssssssssssssssssssssssssssssssssssscsssssssssssssssssssssssscs" /><path
     style="display:inline;fill:#000000;fill-opacity:1;opacity:0.2"
     d="m 239.05674,237.03829 c -1.52648,-0.61984 -3.84067,-2.37202 -4.69787,-3.55697 -0.40363,-0.55796 -0.86153,-1.15476 -1.01757,-1.32624 -0.15603,-0.17147 -0.50998,-1.20463 -0.78654,-2.29592 -0.27657,-1.09129 -4.69783,-29.20916 -9.82502,-62.48416 -5.12719,-33.275 -9.3547,-60.54396 -9.39447,-60.59769 -0.0398,-0.0537 -0.72341,0.57811 -1.51918,1.40409 -2.09876,2.17843 -3.26034,2.64747 -6.86118,2.77048 l -2.92009,0.0998 -1.82991,-0.89337 c -1.51967,-0.7419 -2.04181,-1.16868 -3.07981,-2.51729 -1.95577,-2.54106 -2.60412,-4.29264 -2.61559,-7.06628 -0.0102,-2.460489 0.39264,-4.470151 1.14809,-5.727869 0.89466,-1.489495 4.46654,-6.477114 7.58892,-10.596831 0.67739,-0.89375 1.6584,-2.224082 2.18004,-2.956293 1.39564,-1.959011 4.05704,-5.611594 4.40367,-6.043707 0.16545,-0.20625 0.85677,-1.10625 1.53627,-2 1.64534,-2.16414 1.94966,-2.41667 4.10221,-3.404178 1.66779,-0.765116 2.06139,-0.845706 4.125,-0.844601 2.12349,0.0011 2.40234,0.06316 4.03129,0.896609 0.9625,0.492464 1.93534,1.061412 2.16187,1.264328 0.4226,0.378554 1.29545,0.984597 3.86747,2.685282 0.80886,0.534842 1.80221,1.303243 2.20743,1.707557 0.40523,0.404313 1.14378,0.942755 1.64124,1.196536 0.49745,0.253781 1.26891,0.801871 1.71435,1.217976 0.44544,0.416106 1.22564,1.011694 1.73377,1.32353 0.50813,0.311837 2.04887,1.407333 3.42387,2.434438 1.375,1.027104 3.33166,2.489051 4.34814,3.24877 C 246.61513,86.390325 249,88.989812 249,89.637979 249,89.837091 249.1125,90 249.25,90 c 0.1375,0 0.25382,0.140625 0.25848,0.3125 0.005,0.171875 0.22585,0.7625 0.49152,1.3125 0.84666,1.752804 0.55376,5.946388 -0.58997,8.44684 -0.77503,1.6944 -2.85562,3.82961 -4.54636,4.6657 -1.04391,0.51624 -1.69657,0.62904 -4.15087,0.71742 -2.74018,0.0987 -2.99819,0.0655 -4.36822,-0.56173 -0.80081,-0.36662 -1.65663,-0.84814 -1.90183,-1.07004 -0.2452,-0.2219 -0.48925,-0.35727 -0.54234,-0.30082 -0.0531,0.0564 0.16714,1.73388 0.4894,3.72763 0.32226,1.99375 1.06016,6.775 1.63978,10.625 0.57961,3.85 1.0632,7.00955 1.07463,7.02122 0.0217,0.0221 2.6138,-0.25692 4.77078,-0.51356 2.87741,-0.34236 27.88238,-4.3067 28.01766,-4.44199 0.0812,-0.0812 -1.0998,-8.22914 -2.62436,-18.10662 -1.52456,-9.877477 -2.77112,-18.28917 -2.77012,-18.692649 0.006,-2.520154 1.78375,-5.437895 3.90015,-6.402029 1.49352,-0.680377 4.46071,-0.675705 5.91804,0.0093 1.52683,0.717696 3.21247,2.397512 3.71768,3.704835 0.14272,0.369311 1.52577,8.856932 3.07346,18.861379 1.54768,10.004444 2.89029,18.266224 2.98357,18.359504 0.15314,0.15314 29.86721,-4.29937 30.07434,-4.50649 0.048,-0.048 -1.10826,-7.78355 -2.56946,-17.190096 -1.75212,-11.279307 -2.65539,-17.783847 -2.65279,-19.102894 0.004,-2.185013 0.3634,-3.895782 0.93844,-4.47082 0.20261,-0.202617 0.36839,-0.437589 0.36839,-0.522162 0,-0.241021 1.05812,-1.250807 1.7726,-1.691628 1.319,-0.813801 5.4774,-1.48858 5.4774,-0.888812 0,0.109172 0.0903,0.170369 0.20055,0.135994 0.1103,-0.03437 0.75717,0.198073 1.4375,0.516552 0.95673,0.44787 1.47247,0.929277 2.27656,2.125 1.33674,1.987789 1.42112,2.295701 2.34177,8.545948 0.42533,2.8875 1.03599,6.88125 1.35703,8.875 0.32105,1.99375 1.17674,7.5625 1.90155,12.374998 0.72481,4.8125 1.39423,8.8394 1.48761,8.94867 0.0934,0.10927 1.45287,-0.035 3.0211,-0.32047 1.56823,-0.28553 3.21696,-0.53967 3.66383,-0.56475 0.44687,-0.0251 0.8125,-0.12022 0.8125,-0.21143 0,-0.0912 0.3375,-0.13712 0.75,-0.10202 0.4125,0.0351 0.75,-0.0108 0.75,-0.10202 0,-0.0912 0.36563,-0.18351 0.8125,-0.20512 0.44687,-0.0216 1.20625,-0.10839 1.6875,-0.19286 0.48125,-0.0845 1.24063,-0.17126 1.6875,-0.19286 0.44687,-0.0216 0.8125,-0.11714 0.8125,-0.21231 0,-0.0952 0.19687,-0.12487 0.4375,-0.066 0.24063,0.0588 1.73125,-0.1204 3.3125,-0.39833 1.58125,-0.27793 3.2125,-0.55368 3.625,-0.61276 0.4125,-0.0591 1.0875,-0.18271 1.5,-0.27472 0.4125,-0.092 1.11563,-0.18031 1.5625,-0.19621 0.44687,-0.0159 0.8125,-0.10355 0.8125,-0.19476 0,-0.0912 0.3375,-0.13712 0.75,-0.10202 0.4125,0.0351 0.75,-0.0108 0.75,-0.10202 0,-0.0912 0.36563,-0.18351 0.8125,-0.20512 0.44687,-0.0216 1.20625,-0.10839 1.6875,-0.19286 0.48125,-0.0845 1.24063,-0.17126 1.6875,-0.19286 0.44687,-0.0216 0.8125,-0.10084 0.8125,-0.17608 0,-0.0752 1.17799,-0.17119 2.61775,-0.21323 2.37314,-0.0693 2.73301,-0.0185 3.85125,0.54312 1.25693,0.63133 3.012,2.28617 3.02424,2.85155 0.004,0.17188 0.10125,0.3125 0.21675,0.3125 0.11549,0 0.35663,0.44434 0.53586,0.98742 0.39939,1.21016 0.22149,3.60401 -0.3587,4.82667 -0.61305,1.29189 -2.43816,3.08276 -3.75141,3.68102 -0.84301,0.38403 -5.77481,1.2356 -18.45559,3.18671 -9.51783,1.46445 -17.31934,2.66951 -17.33669,2.67791 -0.10466,0.0507 4.62089,29.93796 4.75473,30.0718 0.0904,0.0904 7.75103,-1.00529 17.02374,-2.43476 16.05857,-2.47555 16.94641,-2.58649 18.6895,-2.33538 2.54177,0.36618 3.41118,0.85442 4.95741,2.78395 1.248,1.55737 1.34683,1.78026 1.4403,3.24818 0.0552,0.86684 -0.0338,2.05515 -0.19772,2.64068 -0.50283,1.79595 -2.55773,3.99568 -4.41504,4.7262 -0.60884,0.23948 -8.77833,1.62259 -18.15442,3.07358 -9.3761,1.451 -17.09073,2.68146 -17.14364,2.73436 -0.10847,0.10847 4.62588,30.88919 4.77378,31.03709 0.0722,0.0722 18.24566,-2.64084 19.87166,-2.96657 0.18134,-0.0363 -0.22282,-0.65487 -0.9375,-1.43478 -0.69094,-0.754 -1.25626,-1.4633 -1.25626,-1.57621 0,-0.11292 -0.25186,-0.7335 -0.55968,-1.37909 -0.4826,-1.01212 -0.56008,-1.58697 -0.5625,-4.17378 -0.003,-2.77513 0.0487,-3.10307 0.6843,-4.375 0.37792,-0.75625 0.97993,-1.7125 1.33781,-2.125 0.35787,-0.4125 0.77992,-0.92346 0.93787,-1.13547 0.71154,-0.95502 2.39171,-1.97215 3.86989,-2.34274 2.10846,-0.5286 5.2275,-0.51703 6.59975,0.0245 1.44863,0.57166 4.13843,2.19188 5.19878,3.13152 0.47783,0.42343 1.60003,1.2474 2.49378,1.83103 0.89375,0.58363 1.84973,1.31005 2.12441,1.61425 0.27468,0.30421 0.83718,0.72435 1.25,0.93365 0.41282,0.20929 1.24967,0.7884 1.85965,1.2869 1.24622,1.01845 2.76892,2.12585 4.68862,3.40983 0.71372,0.47737 1.60777,1.15532 1.98677,1.50657 0.379,0.35124 1.31379,1.02208 2.07732,1.49074 0.76353,0.46866 1.78198,1.3219 2.26323,1.89608 0.48125,0.57419 1.07187,1.27138 1.3125,1.54932 0.24063,0.27793 0.4375,0.6475 0.4375,0.82125 0,0.17375 0.11677,0.35484 0.25949,0.40241 0.14272,0.0476 0.53647,0.84957 0.875,1.78221 0.72989,2.01081 0.8315,5.06048 0.23483,7.04796 -0.42652,1.42073 -1.40012,3.375 -1.68139,3.375 -0.10336,0 -0.18793,0.12054 -0.18793,0.26786 0,0.14732 -0.17269,0.44055 -0.38376,0.65161 -0.21107,0.21107 -0.85233,1.07491 -1.42503,1.91965 -0.5727,0.84473 -1.30001,1.81598 -1.61624,2.15833 -0.31623,0.34234 -0.57497,0.76422 -0.57497,0.9375 0,0.17328 -0.0844,0.32032 -0.1875,0.32676 -0.10312,0.006 -0.58125,0.57162 -1.0625,1.25595 -1.05149,1.4952 -3.39548,4.6862 -3.88714,5.29178 -0.194,0.23894 -0.65384,0.91143 -1.02187,1.49443 -0.36803,0.583 -0.82071,1.21156 -1.00595,1.39681 -0.18525,0.18524 -0.69433,0.86274 -1.13131,1.50556 -1.27542,1.87623 -3.68698,4.72273 -4.54085,5.35985 -1.81227,1.35221 -4.80471,2.10384 -7.42873,1.8659 -3.17984,-0.28834 -6.53875,-2.91699 -8.14065,-6.3708 -1.134,-2.44497 -1.04885,-6.69626 0.18516,-9.2454 0.29072,-0.60054 0.48757,-1.12201 0.43746,-1.15882 -0.0501,-0.0368 -27.54112,4.18369 -61.09112,9.3789 -37.7099,5.83937 -61.66816,9.444 -62.75,9.44102 -1.07342,-0.003 -2.16301,-0.17253 -2.81826,-0.4386 z M 309.27467,222.875 c 36.05078,-5.56875 65.76781,-10.125 66.03785,-10.125 0.30402,0 0.44274,0.12569 0.36431,0.33009 -0.0697,0.18155 -1.35831,2.00968 -2.86364,4.0625 -3.64028,4.96427 -3.68139,5.04784 -3.68037,7.48241 6.6e-4,1.57825 0.11672,2.21839 0.55038,3.03564 1.21538,2.2904 3.79133,3.62846 6.0209,3.12751 1.39416,-0.31325 2.00859,-0.74224 3.34428,-2.33497 1.96238,-2.34002 14.69553,-19.89529 15.36164,-21.17919 1.13095,-2.17986 0.94953,-4.56715 -0.5158,-6.78739 -0.36833,-0.55809 -3.17645,-2.7837 -7.55277,-5.98605 -11.18052,-8.18128 -11.65478,-8.52909 -12.96645,-9.50935 -2.18156,-1.63036 -3.28809,-2.06858 -4.86183,-1.92543 -1.68287,0.15308 -2.99637,0.88454 -3.82411,2.12957 -1.04984,1.57909 -1.27173,2.43352 -1.11561,4.29572 0.23643,2.82021 0.95757,3.67342 6.55155,7.75146 3.22172,2.34864 4.15602,3.25748 3.34876,3.25748 -0.1721,0 -8.05906,1.19629 -17.52659,2.65841 -9.46752,1.46213 -17.27698,2.59511 -17.35435,2.51774 -0.24358,-0.24358 -6.3237,-40.0436 -6.14139,-40.20105 0.0955,-0.0824 8.44232,-1.41515 18.54857,-2.96156 10.10625,-1.54641 18.825,-2.93244 19.375,-3.08007 1.31368,-0.35261 2.08022,-1.06553 2.27774,-2.11841 0.30325,-1.61648 -0.91207,-2.81506 -2.8544,-2.81506 -0.53707,0 -9.34039,1.29174 -19.56292,2.87054 -10.27663,1.58715 -18.64836,2.77032 -18.72496,2.64638 -0.1875,-0.30337 -6.10501,-38.75658 -5.98242,-38.87496 0.0533,-0.0515 8.57337,-1.40125 18.93342,-2.99945 10.36005,-1.5982 19.1913,-3.05605 19.625,-3.23966 1.7688,-0.74885 2.37293,-2.48962 1.30667,-3.76515 -1.08698,-1.30032 -1.79802,-1.24002 -21.68148,1.83866 -9.85234,1.5255 -18.20547,2.77364 -18.5625,2.77364 -0.35703,0 -0.64915,-0.11957 -0.64915,-0.26571 0,-1.15704 -6.09328,-39.54346 -6.37695,-40.173501 -0.43403,-0.96398 -1.69064,-1.801653 -2.45489,-1.63646 -1.42571,0.308169 -1.89233,0.839993 -2.25986,2.575671 -0.0728,0.34375 1.24735,9.546786 2.93365,20.45119 1.6863,10.90441 2.96612,19.88792 2.84404,19.96337 -0.24984,0.15441 -38.73105,6.12637 -38.82475,6.02527 -0.0331,-0.0357 -1.43196,-8.95233 -3.10868,-19.81483 -1.67673,-10.8625 -3.19336,-20.096736 -3.37028,-20.520525 -0.91375,-2.188657 -3.54885,-2.46391 -4.49523,-0.469553 -0.21288,0.448603 -0.38777,1.079891 -0.38866,1.40286 -8.9e-4,0.32297 1.36761,9.450595 3.04111,20.283608 1.8083,11.7057 2.94997,19.77904 2.81411,19.9001 -0.23719,0.21135 -41.57576,6.6401 -41.72594,6.48899 -0.19422,-0.19541 -5.72634,-36.695146 -5.5834,-36.83808 0.0858,-0.08582 2.22691,1.361361 4.75798,3.215953 6.16342,4.516117 6.20967,4.541597 8.19775,4.514507 1.20108,-0.0164 1.86212,-0.16515 2.53393,-0.57034 2.62701,-1.58441 3.54896,-5.323926 2.03269,-8.244778 -0.77891,-1.500458 -1.40633,-2.038073 -7.97173,-6.830711 -1.63344,-1.192383 -5.50114,-4.031411 -8.59489,-6.308952 -3.09375,-2.277541 -6.11559,-4.383651 -6.71521,-4.680246 -1.31581,-0.650854 -3.33515,-0.713193 -4.44873,-0.137337 -1.22364,0.63277 -2.19826,1.821148 -7.72513,9.419504 -2.85042,3.91875 -6.06303,8.30625 -7.13915,9.75 -2.99978,4.024611 -3.34966,4.759639 -3.33202,7 0.0177,2.2512 0.57037,3.49893 2.14778,4.84913 1.68589,1.44306 3.73468,1.78347 5.58746,0.92836 1.38285,-0.63823 1.50548,-0.78616 7.58541,-9.150558 0.87198,-1.199612 1.67331,-2.084546 1.78074,-1.966522 0.10743,0.118025 4.82552,30.21837 10.48465,66.88965 5.65912,36.67128 10.45443,67.07022 10.65623,67.55319 0.90463,2.1651 2.92,3.61766 5.04436,3.6357 0.71577,0.006 30.79749,-4.5452 66.84828,-10.11395 z m -62.20188,-3.19569 c -0.32887,-0.50906 -6.3229,-39.7792 -6.10499,-39.99711 0.37578,-0.37578 41.54243,-6.61787 41.72284,-6.32643 0.33064,0.53411 6.27546,39.77186 6.05901,39.99143 -0.12048,0.12221 -9.19781,1.60721 -20.17185,3.3 -10.97404,1.69279 -20.25781,3.136 -20.63061,3.20711 -0.39206,0.0748 -0.76068,0.001 -0.8744,-0.175 z m 20.1391,-7.55655 c 8.47721,-1.30748 15.69696,-2.43581 16.04388,-2.5074 l 0.63077,-0.13017 -2.40034,-15.55509 c -1.90083,-12.31806 -2.47431,-15.54682 -2.75577,-15.51529 -1.20144,0.13455 -32.37458,4.94078 -32.45825,5.00436 -0.10003,0.076 4.39569,29.77064 4.63936,30.64333 0.0672,0.24062 0.2943,0.4375 0.50469,0.4375 0.2104,0 7.31844,-1.06976 15.79566,-2.37724 z m 27.0204,0.0184 c -0.26249,-0.6309 -6.2745,-39.68226 -6.1312,-39.82557 0.2317,-0.23169 38.75887,-6.05361 38.91017,-5.87979 0.18851,0.21655 6.33861,40.05147 6.20281,40.17626 -0.049,0.045 -8.79161,1.42361 -19.42805,3.06355 -19.10375,2.94543 -19.34159,2.97542 -19.55373,2.46555 z m 33.71518,-9.50528 c 0.12964,-0.12964 -4.50629,-30.5693 -4.7054,-30.89579 -0.13446,-0.22049 -29.71446,4.19736 -30.04689,4.48758 -0.0989,0.0863 0.88547,7.05824 2.1875,15.49311 1.30203,8.43486 2.36732,15.41295 2.36732,15.50687 0,0.17362 29.99271,-4.38701 30.19747,-4.59177 z M 239.92334,174.0625 c -0.24223,-0.42776 -5.99563,-38.57354 -5.84122,-38.72796 0.27397,-0.27396 41.52088,-6.58154 41.72216,-6.38026 0.26437,0.26437 6.17251,38.63631 5.98061,38.84255 -0.15631,0.16799 -40.37176,6.45317 -41.2903,6.45317 -0.25579,0 -0.51286,-0.0844 -0.57125,-0.1875 z m 21.08802,-7.46395 15.88637,-2.44332 -2.32116,-14.99157 c -1.27663,-8.24537 -2.37761,-15.04804 -2.44662,-15.11705 -0.10788,-0.10788 -30.78516,4.52018 -32.30634,4.87383 -0.43832,0.1019 -0.52796,0.26418 -0.43718,0.79137 0.37821,2.19615 1.54788,9.72014 2.8625,18.41319 1.84131,12.17586 1.63707,11.20535 2.32445,11.04531 0.30339,-0.0707 7.70048,-1.22794 16.43798,-2.57176 z m 26.1211,0.089 c -0.38337,-1.17625 -5.91918,-38.49618 -5.73471,-38.66084 0.28778,-0.25687 38.55914,-6.1531 38.7433,-5.96894 0.25408,0.25407 6.11485,38.78661 5.92372,38.9464 -0.16359,0.13677 -38.10434,6.0353 -38.63512,6.00649 -0.10744,-0.006 -0.24118,-0.15124 -0.29719,-0.32311 z m 19.24254,-7.07791 c 7.8375,-1.20056 14.34606,-2.26804 14.46346,-2.37218 0.15385,-0.13645 -4.22734,-29.91692 -4.43466,-30.14395 -0.0906,-0.0992 -29.94948,4.61889 -30.08434,4.75374 -0.12262,0.12262 3.39942,23.89905 4.34989,29.36506 0.12954,0.74497 0.21778,0.82309 0.80062,0.70871 0.36027,-0.0707 7.06753,-1.11082 14.90503,-2.31138 z"
     id="path74893" /></svg>
