<?xml version="1.0" encoding="UTF-8" standalone="no"?>
<!-- Created with Inkscape (http://www.inkscape.org/) -->

<svg
   width="600mm"
   height="372mm"
   viewBox="0 0 600 372"
   version="1.1"
   id="svg1"
   xml:space="preserve"
   inkscape:version="1.3.1 (91b66b0783, 2023-11-16)"
   sodipodi:docname="运算.svg"
   xmlns:inkscape="http://www.inkscape.org/namespaces/inkscape"
   xmlns:sodipodi="http://sodipodi.sourceforge.net/DTD/sodipodi-0.dtd"
   xmlns="http://www.w3.org/2000/svg"
   xmlns:svg="http://www.w3.org/2000/svg"><sodipodi:namedview
     id="namedview1"
     pagecolor="#505050"
     bordercolor="#eeeeee"
     borderopacity="1"
     inkscape:showpageshadow="0"
     inkscape:pageopacity="0"
     inkscape:pagecheckerboard="0"
     inkscape:deskcolor="#505050"
     inkscape:document-units="mm"
     inkscape:zoom="0.44582292"
     inkscape:cx="525.9936"
     inkscape:cy="443.001"
     inkscape:window-width="1920"
     inkscape:window-height="1027"
     inkscape:window-x="1912"
     inkscape:window-y="-8"
     inkscape:window-maximized="1"
     inkscape:current-layer="svg1" /><defs
     id="defs1" /><rect
     style="opacity:1;fill:#6363d3;fill-opacity:1;stroke:none;stroke-width:1;stroke-opacity:1"
     id="rect3"
     width="600"
     height="372"
     x="0"
     y="0"
     ry="0.75"
     inkscape:label="背景" /><path
     style="opacity:0.2;fill:#ffffff;fill-opacity:1;stroke-width:1.41876"
     d="m 10.130599,371.28935 c -7.722965,-2.76657 -5.51617,-13.72347 5.6194,-27.90057 4.76311,-6.06409 13.692,-14.33812 23.46113,-21.74041 5.18607,-3.92962 14.1289,-10.4343 17.03887,-12.39344 1.34061,-0.90259 2.52187,-1.7383 2.62499,-1.85713 0.10318,-0.11887 0.46626,-0.38517 0.80697,-0.59184 0.34069,-0.20668 2.14503,-1.3903 4.00962,-2.63031 7.76181,-5.16179 19.02781,-12.02573 26.68341,-16.25716 0.92812,-0.51298 2.19375,-1.22665 2.81251,-1.58591 7.385301,-4.2881 20.321471,-10.50369 25.312491,-12.16218 6.18685,-2.05586 12.22045,-2.30771 15.96438,-0.66636 3.36054,1.47328 5.34684,5.04364 4.90279,8.81274 -0.45564,3.86755 -2.20066,6.58188 -8.5487,13.29727 -4.15519,4.39564 -7.28176,8.89713 -8.8174,12.69494 -0.85462,2.11353 -1.05873,3.18398 -1.0389,5.44848 0.0295,3.36722 0.62255,4.69641 2.75662,6.17833 3.62303,2.51583 9.71829,2.05714 15.68746,-1.18055 5.43076,-2.94565 6.51102,-3.67658 9.6019,-6.49687 2.61644,-2.38737 3.40437,-3.19797 5.67934,-5.84276 1.23751,-1.43864 2.34618,-2.70027 2.46374,-2.8036 0.11749,-0.10339 1.71034,-2.04788 3.53955,-4.32121 12.82922,-15.94413 20.18271,-23.91617 26.4356,-28.65929 2.84293,-2.15649 3.86629,-2.71804 7.35934,-4.0382 2.87443,-1.08638 5.04608,-1.03946 7.82735,0.16908 2.81727,1.2242 6.31838,5.82325 7.83053,10.28622 1.65513,4.88487 0.44499,14.94065 -2.97059,24.68461 -4.10708,11.71669 -9.63645,22.57761 -19.11051,37.53741 -1.70969,2.69964 -6.35636,9.11767 -10.09357,13.94136 -5.15527,6.65401 -7.90564,9.86001 -13.61948,15.87574 l -2.76597,2.91212 -47.51049,-0.0128 -47.510491,-0.0128 1.5,-1.18524 c 2.73401,-2.16032 5.84743,-5.54962 6.5768,-7.15957 0.39558,-0.87316 0.72293,-2.32845 0.72747,-3.23398 0.007,-1.44251 -0.1903,-1.84534 -1.59494,-3.2528 -2.318,-2.32269 -4.75219,-2.98433 -10.95932,-2.97882 -3.96098,0.003 -5.47264,0.17043 -8.06251,0.89028 -3.59055,0.99796 -8.9145,3.43881 -11.99999,5.50158 -1.13439,0.75837 -2.65313,1.70069 -3.375,2.09402 -0.72189,0.39335 -1.56563,0.87998 -1.87501,1.0814 -0.94605,0.61594 -8.66352,4.29726 -11.25,5.36637 -6.14201,2.5388 -12.67168,3.42651 -16.11939,2.19145 z m 236.619381,0.44633 c 0,-0.54746 7.14101,-7.21702 11.90304,-11.11721 4.54108,-3.7192 14.24244,-10.9954 21.05341,-15.79043 1.52293,-1.07216 3.23095,-2.28756 3.79559,-2.7009 0.56465,-0.41333 2.103,-1.50092 3.41854,-2.41687 1.31556,-0.91593 2.98255,-2.11207 3.70442,-2.65807 0.72188,-0.54601 3.33068,-2.50204 5.79733,-4.34676 17.25463,-12.90412 24.75453,-21.61078 25.24765,-29.31008 0.52937,-8.26535 -5.81132,-9.8738 -17.7432,-4.50092 -6.52848,2.93975 -17.06769,8.86021 -26.80178,15.05604 -11.74543,7.47605 -23.84953,14.6206 -30.23718,17.84774 -8.96595,4.52972 -13.90184,5.81349 -16.15926,4.20281 -1.90793,-1.36132 -2.23892,-3.78942 -1.01447,-7.44221 3.57388,-10.66159 19.47233,-32.06137 42.15261,-56.73867 6.15295,-6.69473 25.64019,-26.42549 32.07675,-32.4776 9.1266,-8.58147 21.87609,-19.91723 27.03436,-24.03667 0.39033,-0.31171 2.31281,-1.85458 4.27219,-3.42857 9.02568,-7.25047 19.92421,-14.8126 24.99996,-17.34668 7.46336,-3.72609 12.26524,-4.96257 19.25005,-4.95688 l 5.06249,0.004 2.84357,1.38889 c 3.35203,1.63722 5.12537,3.63724 6.16687,6.95516 0.59424,1.89305 0.62861,2.57647 0.27197,5.4077 -0.8442,6.70155 -5.00927,14.1987 -13.6485,24.56726 -9.51946,11.42501 -12.18396,20.95812 -7.24187,25.91019 1.64521,1.64852 3.17235,2.22471 6.17046,2.32804 4.65285,0.16038 8.8286,-1.36191 14.60021,-5.32261 4.55193,-3.12372 6.53968,-4.22615 8.81521,-4.88899 4.76654,-1.38847 9.45442,-0.34914 12.57438,2.78781 7.26174,7.30127 5.49392,22.43961 -4.21717,36.11282 -4.78576,6.73834 -8.18145,10.29677 -18.46926,19.35446 -1.64497,1.44829 -4.00337,3.47361 -5.24088,4.50071 -1.23749,1.02709 -2.33437,1.96207 -2.43749,2.07773 -0.30498,0.34202 -11.85859,9.37409 -16.125,12.60576 -2.16562,1.64039 -4.02188,3.07059 -4.125,3.17822 -0.10318,0.10765 -1.78961,1.37581 -3.74776,2.81818 -1.95814,1.44236 -3.8144,2.82901 -4.125,3.0814 -0.31061,0.25241 -2.32294,1.68968 -4.47185,3.19394 -2.14893,1.50426 -4.76455,3.35709 -5.81252,4.1174 -1.04795,0.7603 -3.50849,2.49101 -5.46787,3.84601 -1.95938,1.355 -4.2375,2.93914 -5.06249,3.52031 -2.62754,1.85097 -14.8682,10.00367 -18.56251,12.36328 -1.95938,1.25149 -5.04486,3.22735 -6.85665,4.39081 -1.81178,1.16347 -3.37429,2.11539 -3.47223,2.11539 -0.0979,0 -1.56869,0.90297 -3.26835,2.0066 -1.69965,1.10361 -3.87969,2.45633 -4.84455,3.00605 l -1.75428,0.99947 h -25.15196 c -13.83358,0 -25.15198,-0.11887 -25.15198,-0.26417 z m 332.99999,-0.1429 c 0,-2.31462 4.5133,-15.64104 7.75216,-22.88987 2.50241,-5.60057 9.2019,-18.15693 11.62463,-21.78722 l 0.87321,-1.30843 v 23.1963 23.1963 h -10.125 c -7.01954,0 -10.125,-0.12483 -10.125,-0.40708 z M 406.79723,360.80092 c -4.34608,-1.11876 -5.98057,-4.69976 -4.25312,-9.31823 1.28351,-3.43162 5.97445,-10.07147 11.26701,-15.94806 15.17288,-16.84721 23.17284,-26.68968 31.74963,-39.06202 3.75708,-5.41973 10.04346,-16.60215 12.46303,-22.16968 3.13609,-7.21625 5.94528,-12.36908 8.40357,-15.41444 5.36091,-6.64117 9.91435,-9.86435 17.3179,-12.25858 3.75198,-1.21335 9.30009,-1.27986 13.02334,-0.15612 7.21852,2.17865 11.98427,7.65664 13.48825,15.5041 1.19436,6.23196 -0.52356,14.82073 -4.6366,23.18074 -3.10983,6.32095 -8.95434,14.82083 -14.35687,20.87975 -11.13605,12.48904 -25.66946,25.33565 -39.48215,34.89973 -1.39218,0.96396 -3.64523,2.5261 -5.00676,3.47139 -1.36153,0.9453 -3.00684,2.02153 -3.65624,2.39162 -0.6494,0.3701 -3.12137,1.81413 -5.49325,3.20898 -4.92813,2.89811 -9.59431,5.29593 -13.12499,6.74453 -1.34063,0.55005 -2.775,1.14055 -3.1875,1.31224 -2.18377,0.90889 -2.99072,1.18386 -5.14492,1.75317 -2.26773,0.59931 -8.37081,1.23818 -9.37033,0.98088 z M 0.014046,250.35812 l 0.01417,-63.04304 2.892203,-2.28537 c 6.92048,-5.46842 14.90207,-10.94882 23.51721,-16.14761 4.60779,-2.78058 16.91463,-9.20919 21.00001,-10.96961 1.03124,-0.44436 3.30937,-1.42655 5.06249,-2.18261 4.10567,-1.77066 10.51719,-4.10346 15.5625,-5.66229 9.79231,-3.02554 16.7881,-4.16191 23.25,-3.77669 7.53657,0.4493 11.279511,3.50621 11.123661,9.0848 -0.05,1.79029 -0.37288,2.88776 -1.56788,5.32955 -3.318661,6.78118 -12.768041,14.7755 -31.680781,26.8024 -12.51666,7.95956 -22.71302,14.78987 -27.75927,18.59531 -3.59051,2.70766 -9.70515,8.71178 -11.36609,11.16067 -3.58098,5.27974 -3.63178,10.64175 -0.13578,14.33044 3.84044,4.05212 7.48132,2.50572 19.71948,-8.37557 11.28787,-10.03637 17.09363,-13.99695 23.46878,-16.00994 6.07114,-1.91699 11.35812,-0.76291 16.14509,3.52429 6.93356,6.20968 6.00308,15.3903 -2.95831,29.18828 -5.42558,8.35384 -17.15667,21.2128 -29.4889,32.32408 -2.26875,2.04413 -4.20938,3.81818 -4.3125,3.94233 -0.17004,0.20471 -8.02916,6.71187 -9.37386,7.76133 -0.31,0.24193 -1.57614,1.26942 -2.81364,2.28329 -6.49262,5.31933 -29.78009,21.88895 -30.76346,21.88895 -0.10389,0 -0.90278,0.4581 -1.77524,1.018 -0.87246,0.55991 -2.97849,1.74793 -4.68006,2.64004 l -3.093744,1.62201 z m 548.879994,51.3407 c -4.07087,-0.96052 -6.32509,-3.68991 -6.86761,-8.31523 -0.55389,-4.72226 2.30262,-13.14527 7.49032,-22.08671 10.20834,-17.59494 28.69642,-38.92084 49.63948,-57.25885 l 0.84374,-0.7388 v 32.29244 32.29244 l -1.96874,0.68692 c -5.50052,1.91913 -11.65821,5.4798 -17.50798,10.12396 -6.57443,5.21947 -13.88878,9.39889 -20.08577,11.47706 -5.66751,1.90059 -8.41755,2.26431 -11.54344,1.52677 z m -330.64648,-46.1591 c -4.34789,-1.32522 -7.56198,-5.7164 -9.06271,-12.38168 -0.78628,-3.49211 -0.62663,-4.58195 1.06614,-7.27826 1.67048,-2.66082 6.46387,-5.42793 10.92663,-6.30771 2.96358,-0.58422 7.89903,-0.27908 10.3551,0.64022 5.06957,1.89751 7.60788,7.35933 6.08373,13.09066 -0.76521,2.87741 -1.64486,4.30714 -4.16135,6.76363 -4.34784,4.24414 -11.17659,6.7018 -15.20754,5.47314 z m -72.9979,-15.75619 c -5.18173,-1.77911 -7.45287,-5.7688 -6.6041,-11.60138 0.55182,-3.79204 1.24584,-5.80792 3.67874,-10.68538 5.22012,-10.46522 13.83186,-21.59213 26.57638,-34.33842 8.2025,-8.20362 13.45729,-12.99572 19.81297,-18.06838 10.63594,-8.48887 15.31231,-14.9135 15.41286,-21.17487 0.0437,-2.72076 -0.55425,-4.21061 -2.39877,-5.97688 -1.5746,-1.50782 -3.88427,-2.05976 -7.58355,-1.81227 -7.26959,0.48637 -17.22124,6.13848 -28.04702,15.9295 -12.44503,11.25549 -22.75295,16.36732 -29.90517,14.83036 -6.88086,-1.47865 -9.77068,-9.27302 -7.00694,-18.89896 2.93461,-10.22116 9.39611,-17.99974 27.583,-33.20537 1.96932,-1.64649 4.13659,-3.41635 4.81617,-3.93302 0.67957,-0.51668 2.10582,-1.62953 3.16942,-2.47302 1.06362,-0.84349 4.80258,-3.68252 8.30884,-6.30895 3.50625,-2.626425 6.63263,-4.979925 6.94752,-5.230005 0.31487,-0.25009 1.66487,-1.2104 2.99999,-2.13405 1.33512,-0.92363 2.59624,-1.81995 2.80249,-1.99181 1.2823,-1.06846 26.90071,-18.17533 28.875,-19.28147 0.4125,-0.23113 2.60624,-1.56824 4.87499,-2.97136 9.61331,-5.94544 30.26724,-16.89964 37.125,-19.689954 1.65001,-0.671364 3.50626,-1.43896 4.12501,-1.70577 1.92631,-0.830667 9.6222,-3.503555 12.375,-4.298007 5.57408,-1.608687 8.87221,-2.094618 14.06249,-2.071895 4.64904,0.02031 5.27016,0.107508 7.605,1.067028 4.62529,1.900819 7.32665,5.560353 7.68217,10.407018 0.37991,5.17925 -2.24768,9.29912 -9.28716,14.56155 -1.54688,1.15638 -3.15,2.29429 -3.5625,2.52871 -5.94352,3.37745 -12.42882,6.62483 -23.4375,11.73587 -11.52016,5.34847 -14.75749,7.22752 -18.23644,10.58497 -2.383,2.29976 -3.08365,4.07589 -2.41217,6.11463 1.98356,6.022365 8.17698,5.990265 21.58611,-0.11191 0.825,-0.37544 3.35625,-1.56523 5.625,-2.64397 2.26874,-1.07875 5.05312,-2.38473 6.18749,-2.90222 1.13439,-0.51747 3.46531,-1.60255 5.17988,-2.41128 1.71455,-0.80872 3.99267,-1.80659 5.06249,-2.21748 1.06982,-0.41088 2.28263,-0.90683 2.69514,-1.10209 9.85158,-4.66349 22.65213,-6.76792 29.88785,-4.91358 7.44891,1.90895 12.50243,6.93786 12.39607,12.33571 -0.0479,2.43326 -0.58714,4.12222 -2.18066,6.830445 -2.98627,5.07521 -7.36262,9.33231 -19.96301,19.41907 -4.06464,3.2538 -7.9932,6.43559 -8.73014,7.07065 -1.29587,1.11673 -4.16653,3.55356 -6.43585,5.46319 -1.43124,1.20441 -4.49334,5.10672 -5.28886,6.7401 -1.24413,2.55445 -0.37683,5.34401 2.07927,6.68766 1.66774,0.9124 8.74033,0.82518 14.11885,-0.17407 2.82117,-0.52415 5.43704,-0.71217 9.5625,-0.68733 5.34303,0.0321 5.8062,0.0939 7.82977,1.04423 4.3034,2.02094 5.98228,3.91582 7.80793,8.81251 2.72098,7.29812 0.44976,12.59919 -7.8532,18.32957 -1.67063,1.15299 -3.10588,2.09636 -3.18944,2.09636 -0.0836,0 -1.22388,0.65133 -2.53401,1.4474 -1.31014,0.79607 -3.56333,2.0922 -5.00707,2.88031 -4.11784,2.24781 -13.59544,8.00579 -16.63828,10.10835 -4.10522,2.83665 -4.19872,2.90323 -6.55464,4.66699 -6.02702,4.51212 -12.75117,10.90178 -17.69655,16.81624 -5.20689,6.22725 -8.68807,8.11883 -14.99388,8.14728 -9.77305,0.0442 -16.54109,-6.49593 -15.80621,-15.27368 0.62538,-7.46964 4.17384,-13.63587 12.69672,-22.06327 7.12576,-7.04594 8.11534,-9.01035 5.80996,-11.53324 -1.27847,-1.39908 -5.47488,-2.4774 -8.64477,-2.22138 -9.66261,0.78042 -20.7946,7.05245 -38.14014,21.48911 -4.81433,4.00695 -11.42379,9.73188 -14.96972,12.96632 -1.75311,1.59913 -5.38125,4.81736 -8.06249,7.15162 -2.68125,2.33426 -4.95937,4.34698 -5.0625,4.47273 -0.16176,0.19723 -2.36246,2.06304 -5.56832,4.72095 -0.49856,0.41335 -1.09494,0.92372 -1.32532,1.13419 -0.23037,0.21047 -2.52824,2.07596 -5.10636,4.14555 -13.31586,10.68928 -23.42207,15.32873 -29.12533,13.37055 z M 434.2921,223.37908 c -4.49891,-1.26035 -8.61334,-4.20731 -10.03989,-7.19106 -1.07,-2.23799 -0.88896,-6.71237 0.41371,-10.22543 1.51755,-4.09253 4.36129,-8.65066 7.23331,-11.59401 2.22506,-2.28032 3.26047,-3.099 6.66944,-5.27338 4.83797,-3.08586 13.65171,-4.90706 18.68111,-3.86013 4.2148,0.87736 5.48428,3.28446 4.21825,7.9983 -0.7673,2.85684 -0.5014,2.24104 -4.82694,11.17868 -1.95039,4.03 -3.84596,7.97421 -4.21238,8.7649 -1.0585,2.28411 -4.0036,6.11017 -5.82174,7.56317 -3.29903,2.63649 -8.4124,3.73224 -12.31487,2.63896 z m 95.1506,-2.67504 c -4.96135,-1.08121 -8.30319,-2.86619 -11.60211,-6.19713 -2.63837,-2.66398 -4.50704,-5.95917 -5.27852,-9.30815 -0.89769,-3.89687 0.79566,-10.3907 3.95204,-15.15558 1.90309,-2.87292 6.76987,-7.63861 10.47799,-10.26036 1.6887,-1.19395 3.66101,-2.62069 4.38288,-3.17053 1.23746,-0.94256 4.82992,-3.21063 17.61002,-11.11792 5.50162,-3.40396 9.36762,-6.56788 10.34908,-8.46961 0.81718,-1.58346 0.68743,-3.45047 -0.30286,-4.35778 -1.84636,-1.69168 -3.30256,-2.11917 -7.79415,-2.28815 -11.02857,-0.41486 -25.39723,4.56935 -40.6746,14.10926 -1.85624,1.15913 -4.30312,2.80075 -5.4375,3.64803 -4.52191,3.37753 -8.393,5.22762 -13.85816,6.62315 -4.44822,1.13585 -9.97805,0.90158 -13.59684,-0.57604 -4.8626,-1.98549 -7.37703,-5.24702 -7.69183,-9.97723 -0.26994,-4.0564 1.34931,-8.08818 5.28193,-13.15151 7.05911,-9.08874 17.41274,-16.10361 42.9899,-29.12686 1.54688,-0.78762 4.58438,-2.3952 6.75,-3.57237 2.16563,-1.17717 5.28751,-2.86663 6.9375,-3.75436 4.46451,-2.40196 11.4852,-7.2667 13.64845,-9.4572 3.17127,-3.21122 4.27849,-6.669575 2.74345,-8.569085 -1.21947,-1.50904 -5.67236,-0.82168 -12.84512,1.98276 -2.27441,0.88926 -6.5085,2.407805 -11.23428,4.029115 -5.2955,1.81677 -8.71664,2.43815 -13.31249,2.41792 -3.89845,-0.0172 -4.73584,-0.13463 -6.26416,-0.87877 -2.25574,-1.09835 -4.595,-3.6445 -5.84479,-6.361755 -0.83682,-1.81934 -0.98277,-2.65949 -0.99091,-5.70376 -0.009,-3.33161 0.0802,-3.75839 1.33489,-6.38787 2.37077,-4.96881 6.61905,-9.75423 11.76497,-13.25249 2.44857,-1.66457 8.90209,-5.23074 12.37293,-6.83719 6.34579,-2.93711 15.74552,-5.94837 27.0123,-8.65357 18.7792,-4.50898 38.26026,-5.531851 49.02101,-2.57393 0.6155,0.16919 0.65624,1.54953 0.65605,22.23084 l -2.1e-4,22.05042 -3.03157,2.778275 c -3.5005,3.20801 -4.45165,4.77658 -3.78518,6.24225 0.52159,1.14706 3.25027,2.42324 5.35831,2.50599 l 1.45885,0.0572 -0.0156,28.40202 -0.0156,28.40202 -2.67236,1.69091 c -1.46979,0.93 -2.85497,1.86001 -3.07817,2.06667 -0.22319,0.20667 -1.50267,1.12865 -2.84331,2.04886 -1.95121,1.33931 -7.5342,5.52959 -10.87499,8.16216 -4.13146,3.25561 -9.16656,7.77445 -14.0625,12.62065 -6.67556,6.60776 -10.46649,10.80919 -14.71509,16.30852 -4.51547,5.8448 -7.84988,8.66593 -11.91574,10.08157 -2.5536,0.88911 -7.85448,1.2474 -10.36395,0.70051 z M 368.24999,155.93909 c -0.72189,-0.14431 -2.49375,-0.47922 -3.93751,-0.74422 -6.92626,-1.27132 -12.452,-4.68879 -14.44263,-8.93223 -1.05913,-2.25776 -0.88845,-5.51778 0.42579,-8.13293 1.98288,-3.94565 7.09162,-9.12768 15.50698,-15.72946 8.52496,-6.68775 13.56302,-12.88622 15.91736,-19.5836 l 1.33742,-3.804555 -0.12983,-6.57576 c -0.33792,-17.11189 -0.13621,-21.37444 1.28075,-27.0598 3.81722,-15.316472 13.33392,-27.377965 22.16185,-28.08803 2.99164,-0.240622 4.72748,0.720134 5.88905,3.259511 1.55034,3.389273 0.79897,11.01334 -1.7071,17.321549 -0.64294,1.61841 -0.82468,2.87458 -0.84223,5.82131 -0.0254,4.2638 0.55353,5.97773 2.3853,7.06197 3.82621,2.26476 7.86894,-1.71885 9.61618,-9.47555 1.4839,-6.58758 5.47502,-12.879687 14.52709,-22.902362 5.13002,-5.680046 9.74196,-9.745654 15.82545,-13.950696 4.04063,-2.792993 11.8133,-7.135097 12.78413,-7.141715 0.18671,-0.0013 0.76135,-0.219192 1.27698,-0.484255 4.40336,-2.263648 14.7798,-4.40506 21.27878,-4.391356 5.33384,0.01136 11.58746,1.389552 15.59146,3.436366 2.01982,1.032518 5.04025,3.92599 5.93715,5.687616 2.36,4.63533 -0.87832,10.222112 -8.17766,14.108166 -1.61822,0.861527 -3.78598,2.076297 -4.81724,2.699489 -1.03124,0.623206 -2.12276,1.246042 -2.4256,1.384098 -1.28339,0.585032 -7.54761,5.315769 -10.24484,7.736873 -11.92012,10.699866 -20.29002,27.431986 -24.0548,48.087506 -1.56581,8.590915 -3.78353,14.170045 -8.36915,21.054355 -5.66189,8.50011 -14.33898,17.19731 -23.3431,23.39728 -3.13954,2.1618 -14.39089,8.04979 -15.38231,8.04979 -0.15872,0 -1.95171,0.66759 -3.98439,1.48357 -3.90311,1.56681 -12.45326,4.12739 -17.0694,5.11191 -6.60525,1.40877 -18.7866,2.1003 -22.81389,1.29516 z M 0.0018,116.9388 4e-4,84.513995 9.094159,80.067185 c 10.0056,-4.89271 12.31716,-5.97016 16.96874,-7.9094 2.59804,-1.08311 5.76924,-1.93289 7.875,-2.11023 5.03254,-0.42385 6.59552,2.70251 5.74717,11.49586 -0.57363,5.94579 -2.24033,12.16262 -5.18698,19.347465 -5.54618,13.52337 -18.01108,31.31711 -32.508448,46.40604 L 0.004,149.36359 Z m 77.248189,4.54219 c -1.01771,-0.37106 -2.67632,-2.15436 -3.24891,-3.49315 -1.19242,-2.78801 -0.33394,-8.722 2.17443,-15.03029 1.54754,-3.891875 5.78741,-11.991235 8.12843,-15.527585 1.07032,-1.61684 1.94604,-3.01433 1.94604,-3.10555 0,-0.0912 2.06595,-2.82652 4.591,-6.07848 5.65629,-7.28462 13.569081,-15.32842 19.784011,-20.11156 6.40093,-4.9263 7.87976,-7.392211 6.01059,-10.022522 -0.40667,-0.572278 -1.63011,-1.427869 -2.71875,-1.901316 -1.66889,-0.7258 -2.59691,-0.856202 -5.91684,-0.831348 -5.69681,0.0426 -10.415821,1.672084 -15.909371,5.493434 -5.26848,3.664772 -8.38836,5.754662 -9.96563,6.675622 -9.15399,5.34487 -16.14947,7.90265 -21.51929,7.86816 -7.32528,-0.0472 -9.21916,-5.02096 -5.05738,-13.28205 2.74363,-5.446082 6.63524,-10.600844 13.76585,-18.233986 9.47898,-10.147013 25.68754,-21.986021 42.878151,-31.31894 L 116.94715,0 h 27.46892 27.46891 l -1.51715,1.301245 c -1.90716,1.63577 -5.51614,6.329469 -6.2854,8.17456 -1.4102,3.382441 -0.1884,5.178735 3.5225,5.178735 4.78503,0 12.65807,-2.959269 26.88778,-10.106396 L 203.54793,0 244.1802,0.02542 c 30.63128,0.01917 40.40153,0.130373 39.69478,0.451974 -0.51562,0.234587 -3.33702,1.575881 -6.26978,2.980629 -2.93276,1.404748 -5.40526,2.554076 -5.49447,2.554076 -0.0891,0 -1.65529,0.694769 -3.48021,1.543926 -1.82491,0.849158 -3.99303,1.851297 -4.81803,2.226993 -5.9976,2.731216 -16.88026,7.774067 -20.62501,9.557309 -10.84308,5.163454 -29.34138,14.82935 -32.12039,16.783824 -0.54745,0.385041 -1.08775,0.700066 -1.20062,0.700066 -0.22041,0 -7.7446,4.339974 -12.05398,6.952774 -7.95248,4.821629 -17.55224,11.234064 -28.12454,18.786614 -5.04326,3.60275 -19.64471,14.94698 -23.98197,18.63217 -2.71871,2.30998 -16.85611,13.60206 -20.45599,16.33898 -5.83733,4.437995 -14.87458,10.689845 -17.8125,12.322435 -0.61875,0.34384 -2.22187,1.31856 -3.5625,2.16605 -3.46711,2.19174 -13.839391,7.1965 -17.748621,8.56395 -3.19282,1.11682 -7.16709,1.51701 -8.87638,0.89379 z M 347.40264,66.085735 c -6.84382,-1.19878 -11.12173,-7.78259 -12.17673,-18.740299 -0.40162,-4.17154 -0.29854,-15.403233 0.16898,-18.41211 0.0802,-0.516677 0.33176,-2.461224 0.55885,-4.321212 0.22707,-1.860003 0.58194,-4.311826 0.78858,-5.448485 1.04696,-5.758924 2.35607,-12.211395 3.12565,-15.406059 l 0.85993,-3.569694 30.35479,-0.09359 30.35479,-0.09359 -1.6875,1.11601 c -7.43701,4.918401 -15.35412,12.546501 -20.48578,19.737952 -4.25202,5.958729 -9.61172,15.516464 -12.32678,21.981816 -0.96925,2.308086 -2.91355,6.53017 -5.53723,12.024231 -4.17979,8.75263 -8.47027,12.19333 -13.99755,11.22516 z M 0,42.685182 V 27.03593 l 1.031244,-0.399541 c 4.841415,-1.875738 10.776795,-3.047192 15.656255,-3.090039 4.4027,-0.03863 6.62084,0.729265 8.09705,2.803247 1.25789,1.767265 1.21252,4.706722 -0.11239,7.280695 -2.16082,4.197955 -8.0243,10.800823 -14.54716,16.381585 -1.54688,1.323456 -2.89688,2.496088 -3.00001,2.605868 -0.15386,0.16378 -4.920188,3.99524 -6.656238,5.35069 C 0.095414,58.259935 0,55.149255 0,42.685182 Z m 543.90264,-23.90881 c -3.59225,-0.713643 -7.90237,-3.588766 -10.06274,-6.712492 -0.58388,-0.84423 -1.28998,-2.508985 -1.5691,-3.699427 -0.43691,-1.863383 -0.42978,-2.401321 0.0513,-3.867265 0.30734,-0.936556 1.07601,-2.331547 1.70815,-3.100009 L 535.17961,0 H 567.5898 600 v 7.642175 7.642174 l -5.15625,-0.114751 c -8.38519,-0.186641 -20.95173,0.823239 -29.15625,2.343065 -7.90533,1.46441 -17.86615,2.042227 -21.78484,1.263724 z"
     id="path2"
     inkscape:label="背景图案" /><path
     style="fill:#000000;fill-opacity:1;stroke-width:10;stroke:#000000;stroke-dasharray:none;stroke-opacity:1;opacity:0.2"
     d="m 122.16124,272.09983 c -0.37113,-0.285 -0.89689,-0.9352 -1.16839,-1.4449 -0.27148,-0.5097 -2.72245,-22.5182 -5.44661,-48.9077 -2.72416,-26.3896 -4.98605,-48.0256 -5.02645,-48.0801 -0.0403,-0.054 -5.83381,1.3578 -12.874265,3.1384 -8.394935,2.1232 -13.177263,3.143 -13.89449,2.963 -0.601512,-0.1509 -1.394061,-0.7329 -1.761233,-1.2933 -0.700672,-1.0694 -6.975012,-24.8553 -6.989769,-26.4981 -0.0048,-0.5226 0.517752,-1.5047 1.161008,-2.1824 1.102852,-1.1619 5.193816,-2.2534 71.766779,-19.1473 38.8285,-9.8533 71.10792,-17.9138 71.73202,-17.9123 1.69133,0 2.44809,0.4081 3.08918,1.6491 0.81704,1.5816 6.62083,24.5349 6.62083,26.1846 0,2.5528 -0.98601,3.0024 -13.62125,6.2104 -6.37925,1.6196 -11.69664,3.0428 -11.81643,3.1625 -0.11975,0.1198 3.07355,13.1844 7.09626,29.0325 7.55016,29.7451 8.65992,33.2626 10.97219,34.7777 2.27039,1.4876 7.17498,0.7141 12.56684,-1.9819 2.9955,-1.4978 4.9508,-1.5737 6.20295,-0.2409 0.67517,0.7187 1.75801,4.2762 4.11005,13.5028 1.75636,6.8899 3.1953,13.0074 3.19765,13.5946 0.006,1.7364 -1.97576,3.3781 -6.97974,5.7793 -9.18515,4.4076 -18.01016,6.6226 -26.61349,6.6797 -9.74989,0.065 -16.32319,-2.4456 -22.55662,-8.6146 -4.21823,-4.1747 -7.27301,-9.0265 -9.64341,-15.3164 -0.57611,-1.5287 -4.77883,-17.2285 -9.33939,-34.8884 -4.56055,-17.66 -8.36741,-32.185 -8.4597,-32.2778 -0.0923,-0.093 -3.71901,0.752 -8.05944,1.8775 l -7.89167,2.0464 0.23554,1.7374 c 0.70739,5.2179 10.06297,92.6798 10.11537,94.5647 0.10689,3.8476 0.28493,3.7644 -17.94655,8.3945 -8.74072,2.2199 -16.38962,4.03 -16.9976,4.0226 -0.60796,-0.01 -1.40904,-0.2467 -1.78017,-0.5316 z m 180.14258,-54.1429 c -4.44293,-3.8668 -9.46482,-8.3105 -11.15976,-9.8751 l -3.0817,-2.8445 3.0607,-3.4779 c 2.3472,-2.6672 3.2143,-3.3921 3.71963,-3.1098 0.36241,0.2024 3.59592,2.9834 7.18557,6.1799 4.20281,3.7425 6.67309,5.6654 6.93793,5.4006 0.2262,-0.2262 1.40384,-1.8405 2.61698,-3.5873 1.21313,-1.7469 5.07636,-7.2426 8.58497,-12.2127 3.5086,-4.9702 6.66634,-9.4648 7.01719,-9.988 3.0938,-4.6141 9.57267,-13.4402 9.86583,-13.4402 0.42113,0 7.02685,4.5672 7.34109,5.0757 0.23305,0.3771 0.5758,-0.1252 -16.12501,23.631 -6.74197,9.5902 -13.31157,18.9677 -14.5991,20.8389 -1.28752,1.8713 -2.55366,3.6358 -2.81362,3.9211 -0.36156,0.3968 -2.37128,-1.1337 -8.5507,-6.5117 z m 150.7658,-21.6482 c 0,-0.9715 10.43214,-32.7313 11.3858,-34.6631 0.67159,-1.3604 0.91372,-1.4999 2.81423,-1.6206 1.1437,-0.073 2.26277,0.051 2.48684,0.2754 0.39956,0.3996 -10.8087,35.1261 -11.60949,35.9697 -0.20313,0.2139 -1.42864,0.4769 -2.72336,0.5842 -2.02899,0.1683 -2.35402,0.093 -2.35402,-0.5456 z m 14.91519,-0.9476 c -2.70171,-1.4005 -3.19713,-2.57 -3.36793,-7.9504 -0.17983,-5.6644 0.32918,-7.1406 2.83434,-8.2197 2.35902,-1.0162 8.43794,-0.9755 9.98767,0.067 1.98429,1.3347 2.39259,2.6729 2.51984,8.2589 l 0.11653,5.1139 -1.24402,1.3009 c -1.2843,1.343 -1.93513,1.534 -6.62376,1.9439 -2.16555,0.1893 -3.08022,0.078 -4.22261,-0.5144 z m 6.71415,-4.522 c 0.2236,-0.2756 0.2762,-2.0548 0.12119,-4.1017 l -0.27368,-3.6149 h -2.33907 -2.33906 l 0.0128,3.7644 c 0.01,2.9972 0.15511,3.869 0.71362,4.2773 0.818,0.5982 3.5301,0.3834 4.1048,-0.3251 z m -28.96016,-13.2474 c -1.93364,-1.092 -2.57632,-2.9116 -2.78795,-7.8937 -0.30987,-7.2947 0.97972,-8.6794 8.08949,-8.6863 4.0914,0 4.15254,0.011 5.50226,1.3599 1.30806,1.3071 1.38179,1.5638 1.77074,6.1666 0.65935,7.8023 -0.53496,9.3095 -7.58279,9.5697 -2.87393,0.1061 -4.11763,-0.023 -4.99175,-0.5162 z m 7.27863,-4.1879 c 0.56329,-0.6787 0.17327,-6.9914 -0.4834,-7.8243 -0.55599,-0.7052 -2.9284,-0.6786 -3.91647,0.044 -0.69846,0.5107 -0.75632,0.9741 -0.51397,4.1168 0.16385,2.1248 0.4887,3.6782 0.81208,3.8835 0.86829,0.5511 3.58264,0.4056 4.10176,-0.2199 z m -78.76029,-33.0874 c -0.14386,-1.2508 -0.49206,-4.9056 -0.77371,-8.1218 -0.28164,-3.2162 -0.62305,-5.8404 -0.75868,-5.8315 -0.13567,0.01 -3.6914,0.3683 -7.90171,0.7986 -4.21033,0.4303 -7.78034,0.6623 -7.93337,0.5154 -0.30566,-0.2932 -1.27093,-8.6411 -1.02735,-8.8847 0.0831,-0.083 3.61995,-0.4941 7.85956,-0.9132 4.23959,-0.4191 7.82709,-0.8808 7.97222,-1.0259 0.14515,-0.1451 -0.0666,-3.7291 -0.47054,-7.9643 -0.40392,-4.2352 -0.64229,-7.7925 -0.52972,-7.9051 0.26236,-0.2623 8.78468,-1.164365 8.99258,-0.9518 0.086,0.088 0.49259,3.7482 0.90365,8.1339 0.6271,6.6908 0.85582,7.9721 1.42115,7.9615 0.37057,-0.01 3.35307,-0.29 6.62775,-0.6291 3.27469,-0.339 6.6452,-0.6204 7.49002,-0.6253 l 1.53602,-0.01 0.43723,4.3592 c 0.24047,2.3975 0.35958,4.4419 0.26468,4.5431 -0.0948,0.1013 -3.6397,0.5253 -7.87736,0.9424 -4.23763,0.4172 -7.80749,0.8612 -7.93298,0.9867 -0.12553,0.1255 0.1003,3.7018 0.50176,7.9472 0.40148,4.2455 0.57738,7.862 0.39095,8.0366 -0.18646,0.1747 -2.27211,0.4511 -4.63477,0.6143 l -4.29576,0.2967 z m 126.13115,-9.2731 c -2.68649,-1.0246 -2.77253,-1.2323 -1.57847,-3.8095 0.58259,-1.2575 0.95719,-2.3884 0.83244,-2.5131 -0.12473,-0.1247 -2.18613,-2e-4 -4.58088,0.2768 -7.45703,0.8627 -7.54372,0.8342 -7.54372,-2.4755 0,-1.8912 -0.59854,-1.705 8.93099,-2.7784 4.41479,-0.4974 5.86939,-0.8164 6.2955,-1.3809 0.82129,-1.088 0.0129,-1.1023 -8.00753,-0.1424 -3.99627,0.4783 -7.16912,0.6791 -7.38529,0.4674 -0.58079,-0.5688 -0.87756,-4.6741 -0.3379,-4.6741 0.86722,0 18.52095,-2.1394 18.64054,-2.259 0.0661,-0.066 0.98193,-1.9768 2.03515,-4.246 l 1.91494,-4.1259 2.15637,0.85 c 1.18601,0.4675 2.23299,0.85 2.3266,0.85 0.0935,0 -0.40316,1.2645 -1.10397,2.8102 -0.70082,1.5456 -1.17929,2.9051 -1.06329,3.0211 0.20552,0.2055 8.25811,-0.5514 10.56184,-0.9928 1.21256,-0.2323 1.14068,-0.3488 1.80549,2.9264 0.10721,0.5283 0.0532,1.1897 -0.11992,1.47 -0.18691,0.3024 -3.2444,0.8553 -7.52342,1.3603 -5.77328,0.6815 -7.31885,1.0017 -7.76253,1.6085 -0.30729,0.4202 -0.37452,0.8175 -0.15094,0.892 0.22166,0.074 3.80025,-0.2657 7.95244,-0.7545 4.15221,-0.4888 7.69411,-0.7384 7.87092,-0.5547 0.49562,0.515 0.62029,3.8895 0.1601,4.3358 -0.22491,0.2181 -3.94941,0.7974 -8.27668,1.2873 -11.44003,1.2952 -10.48526,1.0175 -11.4882,3.3415 -0.47505,1.1009 -1.29014,2.878 -1.81129,3.9491 l -0.94755,1.9474 z"
     id="path3"
     inkscape:label="内容边框" /><path
     style="fill:#ffffff;fill-opacity:1;stroke-width:1.60738"
     d="m 122.16124,272.09983 c -0.37113,-0.285 -0.89689,-0.9352 -1.16839,-1.4449 -0.27148,-0.5097 -2.72245,-22.5182 -5.44661,-48.9077 -2.72416,-26.3896 -4.98605,-48.0256 -5.02645,-48.0801 -0.0403,-0.054 -5.83381,1.3578 -12.874265,3.1384 -8.394935,2.1232 -13.177263,3.143 -13.89449,2.963 -0.601512,-0.1509 -1.394061,-0.7329 -1.761233,-1.2933 -0.700672,-1.0694 -6.975012,-24.8553 -6.989769,-26.4981 -0.0048,-0.5226 0.517752,-1.5047 1.161008,-2.1824 1.102852,-1.1619 5.193816,-2.2534 71.766779,-19.1473 38.8285,-9.8533 71.10792,-17.9138 71.73202,-17.9123 1.69133,0 2.44809,0.4081 3.08918,1.6491 0.81704,1.5816 6.62083,24.5349 6.62083,26.1846 0,2.5528 -0.98601,3.0024 -13.62125,6.2104 -6.37925,1.6196 -11.69664,3.0428 -11.81643,3.1625 -0.11975,0.1198 3.07355,13.1844 7.09626,29.0325 7.55016,29.7451 8.65992,33.2626 10.97219,34.7777 2.27039,1.4876 7.17498,0.7141 12.56684,-1.9819 2.9955,-1.4978 4.9508,-1.5737 6.20295,-0.2409 0.67517,0.7187 1.75801,4.2762 4.11005,13.5028 1.75636,6.8899 3.1953,13.0074 3.19765,13.5946 0.006,1.7364 -1.97576,3.3781 -6.97974,5.7793 -9.18515,4.4076 -18.01016,6.6226 -26.61349,6.6797 -9.74989,0.065 -16.32319,-2.4456 -22.55662,-8.6146 -4.21823,-4.1747 -7.27301,-9.0265 -9.64341,-15.3164 -0.57611,-1.5287 -4.77883,-17.2285 -9.33939,-34.8884 -4.56055,-17.66 -8.36741,-32.185 -8.4597,-32.2778 -0.0923,-0.093 -3.71901,0.752 -8.05944,1.8775 l -7.89167,2.0464 0.23554,1.7374 c 0.70739,5.2179 10.06297,92.6798 10.11537,94.5647 0.10689,3.8476 0.28493,3.7644 -17.94655,8.3945 -8.74072,2.2199 -16.38962,4.03 -16.9976,4.0226 -0.60796,-0.01 -1.40904,-0.2467 -1.78017,-0.5316 z m 180.14258,-54.1429 c -4.44293,-3.8668 -9.46482,-8.3105 -11.15976,-9.8751 l -3.0817,-2.8445 3.0607,-3.4779 c 2.3472,-2.6672 3.2143,-3.3921 3.71963,-3.1098 0.36241,0.2024 3.59592,2.9834 7.18557,6.1799 4.20281,3.7425 6.67309,5.6654 6.93793,5.4006 0.2262,-0.2262 1.40384,-1.8405 2.61698,-3.5873 1.21313,-1.7469 5.07636,-7.2426 8.58497,-12.2127 3.5086,-4.9702 6.66634,-9.4648 7.01719,-9.988 3.0938,-4.6141 9.57267,-13.4402 9.86583,-13.4402 0.42113,0 7.02685,4.5672 7.34109,5.0757 0.23305,0.3771 0.5758,-0.1252 -16.12501,23.631 -6.74197,9.5902 -13.31157,18.9677 -14.5991,20.8389 -1.28752,1.8713 -2.55366,3.6358 -2.81362,3.9211 -0.36156,0.3968 -2.37128,-1.1337 -8.5507,-6.5117 z m 150.7658,-21.6482 c 0,-0.9715 10.43214,-32.7313 11.3858,-34.6631 0.67159,-1.3604 0.91372,-1.4999 2.81423,-1.6206 1.1437,-0.073 2.26277,0.051 2.48684,0.2754 0.39956,0.3996 -10.8087,35.1261 -11.60949,35.9697 -0.20313,0.2139 -1.42864,0.4769 -2.72336,0.5842 -2.02899,0.1683 -2.35402,0.093 -2.35402,-0.5456 z m 14.91519,-0.9476 c -2.70171,-1.4005 -3.19713,-2.57 -3.36793,-7.9504 -0.17983,-5.6644 0.32918,-7.1406 2.83434,-8.2197 2.35902,-1.0162 8.43794,-0.9755 9.98767,0.067 1.98429,1.3347 2.39259,2.6729 2.51984,8.2589 l 0.11653,5.1139 -1.24402,1.3009 c -1.2843,1.343 -1.93513,1.534 -6.62376,1.9439 -2.16555,0.1893 -3.08022,0.078 -4.22261,-0.5144 z m 6.71415,-4.522 c 0.2236,-0.2756 0.2762,-2.0548 0.12119,-4.1017 l -0.27368,-3.6149 h -2.33907 -2.33906 l 0.0128,3.7644 c 0.01,2.9972 0.15511,3.869 0.71362,4.2773 0.818,0.5982 3.5301,0.3834 4.1048,-0.3251 z m -28.96016,-13.2474 c -1.93364,-1.092 -2.57632,-2.9116 -2.78795,-7.8937 -0.30987,-7.2947 0.97972,-8.6794 8.08949,-8.6863 4.0914,0 4.15254,0.011 5.50226,1.3599 1.30806,1.3071 1.38179,1.5638 1.77074,6.1666 0.65935,7.8023 -0.53496,9.3095 -7.58279,9.5697 -2.87393,0.1061 -4.11763,-0.023 -4.99175,-0.5162 z m 7.27863,-4.1879 c 0.56329,-0.6787 0.17327,-6.9914 -0.4834,-7.8243 -0.55599,-0.7052 -2.9284,-0.6786 -3.91647,0.044 -0.69846,0.5107 -0.75632,0.9741 -0.51397,4.1168 0.16385,2.1248 0.4887,3.6782 0.81208,3.8835 0.86829,0.5511 3.58264,0.4056 4.10176,-0.2199 z m -78.76029,-33.0874 c -0.14386,-1.2508 -0.49206,-4.9056 -0.77371,-8.1218 -0.28164,-3.2162 -0.62305,-5.8404 -0.75868,-5.8315 -0.13567,0.01 -3.6914,0.3683 -7.90171,0.7986 -4.21033,0.4303 -7.78034,0.6623 -7.93337,0.5154 -0.30566,-0.2932 -1.27093,-8.6411 -1.02735,-8.8847 0.0831,-0.083 3.61995,-0.4941 7.85956,-0.9132 4.23959,-0.4191 7.82709,-0.8808 7.97222,-1.0259 0.14515,-0.1451 -0.0666,-3.7291 -0.47054,-7.9643 -0.40392,-4.2352 -0.64229,-7.7925 -0.52972,-7.9051 0.26236,-0.2623 8.78468,-1.164365 8.99258,-0.9518 0.086,0.088 0.49259,3.7482 0.90365,8.1339 0.6271,6.6908 0.85582,7.9721 1.42115,7.9615 0.37057,-0.01 3.35307,-0.29 6.62775,-0.6291 3.27469,-0.339 6.6452,-0.6204 7.49002,-0.6253 l 1.53602,-0.01 0.43723,4.3592 c 0.24047,2.3975 0.35958,4.4419 0.26468,4.5431 -0.0948,0.1013 -3.6397,0.5253 -7.87736,0.9424 -4.23763,0.4172 -7.80749,0.8612 -7.93298,0.9867 -0.12553,0.1255 0.1003,3.7018 0.50176,7.9472 0.40148,4.2455 0.57738,7.862 0.39095,8.0366 -0.18646,0.1747 -2.27211,0.4511 -4.63477,0.6143 l -4.29576,0.2967 z m 126.13115,-9.2731 c -2.68649,-1.0246 -2.77253,-1.2323 -1.57847,-3.8095 0.58259,-1.2575 0.95719,-2.3884 0.83244,-2.5131 -0.12473,-0.1247 -2.18613,-2e-4 -4.58088,0.2768 -7.45703,0.8627 -7.54372,0.8342 -7.54372,-2.4755 0,-1.8912 -0.59854,-1.705 8.93099,-2.7784 4.41479,-0.4974 5.86939,-0.8164 6.2955,-1.3809 0.82129,-1.088 0.0129,-1.1023 -8.00753,-0.1424 -3.99627,0.4783 -7.16912,0.6791 -7.38529,0.4674 -0.58079,-0.5688 -0.87756,-4.6741 -0.3379,-4.6741 0.86722,0 18.52095,-2.1394 18.64054,-2.259 0.0661,-0.066 0.98193,-1.9768 2.03515,-4.246 l 1.91494,-4.1259 2.15637,0.85 c 1.18601,0.4675 2.23299,0.85 2.3266,0.85 0.0935,0 -0.40316,1.2645 -1.10397,2.8102 -0.70082,1.5456 -1.17929,2.9051 -1.06329,3.0211 0.20552,0.2055 8.25811,-0.5514 10.56184,-0.9928 1.21256,-0.2323 1.14068,-0.3488 1.80549,2.9264 0.10721,0.5283 0.0532,1.1897 -0.11992,1.47 -0.18691,0.3024 -3.2444,0.8553 -7.52342,1.3603 -5.77328,0.6815 -7.31885,1.0017 -7.76253,1.6085 -0.30729,0.4202 -0.37452,0.8175 -0.15094,0.892 0.22166,0.074 3.80025,-0.2657 7.95244,-0.7545 4.15221,-0.4888 7.69411,-0.7384 7.87092,-0.5547 0.49562,0.515 0.62029,3.8895 0.1601,4.3358 -0.22491,0.2181 -3.94941,0.7974 -8.27668,1.2873 -11.44003,1.2952 -10.48526,1.0175 -11.4882,3.3415 -0.47505,1.1009 -1.29014,2.878 -1.81129,3.9491 l -0.94755,1.9474 z"
     id="path3-6"
     inkscape:label="内容" /></svg>
